%TF.GenerationSoftware,KiCad,Pcbnew,(6.0.2)*%
%TF.CreationDate,2022-08-16T13:23:33+02:00*%
%TF.ProjectId,BeamRider_MainBoard_v1,4265616d-5269-4646-9572-5f4d61696e42,rev?*%
%TF.SameCoordinates,Original*%
%TF.FileFunction,Profile,NP*%
%FSLAX46Y46*%
G04 Gerber Fmt 4.6, Leading zero omitted, Abs format (unit mm)*
G04 Created by KiCad (PCBNEW (6.0.2)) date 2022-08-16 13:23:33*
%MOMM*%
%LPD*%
G01*
G04 APERTURE LIST*
%TA.AperFunction,Profile*%
%ADD10C,0.100000*%
%TD*%
G04 APERTURE END LIST*
D10*
X241500000Y-71500000D02*
X241500000Y-48600781D01*
X71500000Y-22500000D02*
X227016969Y-42313336D01*
X239500000Y-73500000D02*
X199403944Y-73500000D01*
X239000000Y-34500000D02*
G75*
G03*
X237750000Y-23750000I-142811304J-11158291D01*
G01*
X25000000Y-22500000D02*
X71500000Y-22500000D01*
X199403944Y-91500000D02*
X239500000Y-91500000D01*
X239000000Y-130500000D02*
G75*
G03*
X238332050Y-129251925I-1499997J1D01*
G01*
X241500000Y-93500000D02*
G75*
G03*
X239500000Y-91500000I-1999999J1D01*
G01*
X237750000Y-141250000D02*
G75*
G03*
X239000000Y-130500000I-141561304J21908291D01*
G01*
X238500000Y-118000000D02*
G75*
G03*
X241500000Y-116399219I1072915J1600784D01*
G01*
X238500000Y-47000000D02*
X198500000Y-69500000D01*
X250368695Y-141947214D02*
G75*
G03*
X250394427Y-23052786I-91687807J59467060D01*
G01*
X198500000Y-69499999D02*
G75*
G03*
X199403944Y-73500000I903945J-1897861D01*
G01*
X198500000Y-95500000D02*
X238500000Y-118000000D01*
X239000000Y-22500000D02*
X249500000Y-22500000D01*
X239500000Y-73500000D02*
G75*
G03*
X241500000Y-71500000I1J1999999D01*
G01*
X249474269Y-142500001D02*
G75*
G03*
X250368696Y-141947214I0J1000000D01*
G01*
X21500000Y-139000000D02*
G75*
G03*
X25000000Y-142500000I3499999J-1D01*
G01*
X239000000Y-22500000D02*
G75*
G03*
X237750000Y-23750000I2J-1250002D01*
G01*
X249474269Y-142500000D02*
X239000000Y-142500000D01*
X238332050Y-129251925D02*
X228500000Y-123000000D01*
X228500000Y-123000000D02*
G75*
G03*
X227016969Y-122686664I-1249994J-2249981D01*
G01*
X227016969Y-42313336D02*
G75*
G03*
X228500000Y-42000000I233037J2563317D01*
G01*
X241500000Y-48600781D02*
G75*
G03*
X238500000Y-47000000I-1927084J-1D01*
G01*
X228500000Y-42000000D02*
X238332050Y-35748075D01*
X241500000Y-116399219D02*
X241500000Y-93500000D01*
X71500000Y-142500000D02*
X227016969Y-122686664D01*
X199403944Y-91499999D02*
G75*
G03*
X198500000Y-95500000I0J-2102140D01*
G01*
X250394426Y-23052786D02*
G75*
G03*
X249500000Y-22500000I-894426J-447213D01*
G01*
X237750000Y-141250000D02*
G75*
G03*
X239000000Y-142500000I1250002J2D01*
G01*
X238332050Y-35748075D02*
G75*
G03*
X239000000Y-34500000I-832047J1248074D01*
G01*
X25000000Y-142500000D02*
X71500000Y-142500000D01*
X25000000Y-22500000D02*
G75*
G03*
X21500000Y-26000000I-1J-3499999D01*
G01*
X21500000Y-26000000D02*
X21500000Y-139000000D01*
M02*
