%TF.GenerationSoftware,KiCad,Pcbnew,(6.0.2)*%
%TF.CreationDate,2022-08-16T13:23:33+02:00*%
%TF.ProjectId,BeamRider_MainBoard_v1,4265616d-5269-4646-9572-5f4d61696e42,rev?*%
%TF.SameCoordinates,Original*%
%TF.FileFunction,Soldermask,Bot*%
%TF.FilePolarity,Negative*%
%FSLAX46Y46*%
G04 Gerber Fmt 4.6, Leading zero omitted, Abs format (unit mm)*
G04 Created by KiCad (PCBNEW (6.0.2)) date 2022-08-16 13:23:33*
%MOMM*%
%LPD*%
G01*
G04 APERTURE LIST*
G04 Aperture macros list*
%AMRoundRect*
0 Rectangle with rounded corners*
0 $1 Rounding radius*
0 $2 $3 $4 $5 $6 $7 $8 $9 X,Y pos of 4 corners*
0 Add a 4 corners polygon primitive as box body*
4,1,4,$2,$3,$4,$5,$6,$7,$8,$9,$2,$3,0*
0 Add four circle primitives for the rounded corners*
1,1,$1+$1,$2,$3*
1,1,$1+$1,$4,$5*
1,1,$1+$1,$6,$7*
1,1,$1+$1,$8,$9*
0 Add four rect primitives between the rounded corners*
20,1,$1+$1,$2,$3,$4,$5,0*
20,1,$1+$1,$4,$5,$6,$7,0*
20,1,$1+$1,$6,$7,$8,$9,0*
20,1,$1+$1,$8,$9,$2,$3,0*%
%AMHorizOval*
0 Thick line with rounded ends*
0 $1 width*
0 $2 $3 position (X,Y) of the first rounded end (center of the circle)*
0 $4 $5 position (X,Y) of the second rounded end (center of the circle)*
0 Add line between two ends*
20,1,$1,$2,$3,$4,$5,0*
0 Add two circle primitives to create the rounded ends*
1,1,$1,$2,$3*
1,1,$1,$4,$5*%
%AMRotRect*
0 Rectangle, with rotation*
0 The origin of the aperture is its center*
0 $1 length*
0 $2 width*
0 $3 Rotation angle, in degrees counterclockwise*
0 Add horizontal line*
21,1,$1,$2,0,0,$3*%
G04 Aperture macros list end*
%ADD10C,1.000000*%
%ADD11RoundRect,0.450000X-0.450000X-0.450000X0.450000X-0.450000X0.450000X0.450000X-0.450000X0.450000X0*%
%ADD12C,1.800000*%
%ADD13HorizOval,1.900000X-0.097495X0.794037X0.097495X-0.794037X0*%
%ADD14RoundRect,0.350000X-0.237709X-0.935946X0.457074X-0.850637X0.237709X0.935946X-0.457074X0.850637X0*%
%ADD15HorizOval,1.400000X-0.067028X0.545900X0.067028X-0.545900X0*%
%ADD16RoundRect,0.250000X0.522406X-0.668649X0.668649X0.522406X-0.522406X0.668649X-0.668649X-0.522406X0*%
%ADD17C,1.700000*%
%ADD18R,1.700000X1.700000*%
%ADD19O,1.700000X1.700000*%
%ADD20C,5.600000*%
%ADD21RotRect,3.000000X3.000000X173.000000*%
%ADD22C,3.000000*%
%ADD23RotRect,3.000000X3.000000X97.000000*%
%ADD24RoundRect,0.250000X-0.600000X-0.600000X0.600000X-0.600000X0.600000X0.600000X-0.600000X0.600000X0*%
%ADD25C,0.700000*%
%ADD26HorizOval,0.900000X-0.091402X0.744410X0.091402X-0.744410X0*%
%ADD27HorizOval,0.900000X-0.048748X0.397018X0.048748X-0.397018X0*%
%ADD28RotRect,1.700000X1.700000X7.000000*%
%ADD29HorizOval,1.700000X0.000000X0.000000X0.000000X0.000000X0*%
%ADD30RotRect,1.700000X1.700000X315.000000*%
%ADD31HorizOval,1.700000X0.000000X0.000000X0.000000X0.000000X0*%
%ADD32C,3.800000*%
%ADD33C,3.450000*%
%ADD34C,2.390000*%
%ADD35C,2.500000*%
%ADD36RotRect,4.600000X2.000000X7.000000*%
%ADD37HorizOval,2.000000X1.091801X0.134056X-1.091801X-0.134056X0*%
%ADD38HorizOval,2.000000X-0.134056X1.091801X0.134056X-1.091801X0*%
%ADD39RoundRect,0.250000X0.262500X0.450000X-0.262500X0.450000X-0.262500X-0.450000X0.262500X-0.450000X0*%
%ADD40R,0.250000X0.500000*%
%ADD41R,1.600000X0.900000*%
%ADD42R,2.500000X1.800000*%
%ADD43R,1.500000X0.900000*%
%ADD44RoundRect,0.225000X-0.250000X0.225000X-0.250000X-0.225000X0.250000X-0.225000X0.250000X0.225000X0*%
%ADD45RoundRect,0.250000X0.015851X-0.520725X0.461076X-0.242518X-0.015851X0.520725X-0.461076X0.242518X0*%
%ADD46RoundRect,0.237500X0.250000X0.237500X-0.250000X0.237500X-0.250000X-0.237500X0.250000X-0.237500X0*%
%ADD47RoundRect,0.150000X0.150000X-0.587500X0.150000X0.587500X-0.150000X0.587500X-0.150000X-0.587500X0*%
%ADD48RoundRect,0.250000X-0.461076X-0.242518X-0.015851X-0.520725X0.461076X0.242518X0.015851X0.520725X0*%
%ADD49RoundRect,0.237500X-0.250000X-0.237500X0.250000X-0.237500X0.250000X0.237500X-0.250000X0.237500X0*%
%ADD50RoundRect,0.225000X0.225000X0.250000X-0.225000X0.250000X-0.225000X-0.250000X0.225000X-0.250000X0*%
%ADD51RoundRect,0.237500X-0.237500X0.250000X-0.237500X-0.250000X0.237500X-0.250000X0.237500X0.250000X0*%
%ADD52RoundRect,0.150000X-0.150000X0.587500X-0.150000X-0.587500X0.150000X-0.587500X0.150000X0.587500X0*%
%ADD53RoundRect,0.250000X-0.450000X0.262500X-0.450000X-0.262500X0.450000X-0.262500X0.450000X0.262500X0*%
%ADD54RoundRect,0.225000X-0.225000X-0.250000X0.225000X-0.250000X0.225000X0.250000X-0.225000X0.250000X0*%
%ADD55RoundRect,0.250000X-0.262500X-0.450000X0.262500X-0.450000X0.262500X0.450000X-0.262500X0.450000X0*%
%ADD56RoundRect,0.250000X0.650000X-0.325000X0.650000X0.325000X-0.650000X0.325000X-0.650000X-0.325000X0*%
%ADD57RoundRect,0.237500X0.237500X-0.250000X0.237500X0.250000X-0.237500X0.250000X-0.237500X-0.250000X0*%
%ADD58R,0.400000X1.100000*%
%ADD59RoundRect,0.250000X0.450000X-0.262500X0.450000X0.262500X-0.450000X0.262500X-0.450000X-0.262500X0*%
%ADD60RoundRect,0.150000X0.587500X0.150000X-0.587500X0.150000X-0.587500X-0.150000X0.587500X-0.150000X0*%
%ADD61RoundRect,0.250000X-0.650000X0.325000X-0.650000X-0.325000X0.650000X-0.325000X0.650000X0.325000X0*%
%ADD62RoundRect,0.225000X0.250000X-0.225000X0.250000X0.225000X-0.250000X0.225000X-0.250000X-0.225000X0*%
%ADD63R,0.900000X1.500000*%
G04 APERTURE END LIST*
D10*
X238617409Y-141694028D02*
X239900000Y-130200000D01*
X249651508Y-141682985D02*
G75*
G03*
X249745229Y-23239576I-91495962J59294140D01*
G01*
X249739670Y-23230689D02*
X238700800Y-23231308D01*
X25000000Y-141750000D02*
X71500000Y-141750000D01*
X71500000Y-141750000D02*
X227000000Y-122000000D01*
X25000000Y-23250000D02*
G75*
G03*
X22250000Y-26000000I2J-2750002D01*
G01*
X22250000Y-139000000D02*
G75*
G03*
X25000000Y-141750000I2750002J2D01*
G01*
X227000000Y-43000000D02*
X71500000Y-23250000D01*
X22250000Y-26000000D02*
X22250000Y-139000000D01*
X239983391Y-34725336D02*
X238700800Y-23231308D01*
X249651508Y-141682985D02*
X238612638Y-141683604D01*
X25000000Y-23250000D02*
X71500000Y-23250000D01*
D11*
%TO.C,U4*%
X258600000Y-106250000D03*
D12*
X258600000Y-108750000D03*
X261400000Y-108750000D03*
X261400000Y-106250000D03*
%TD*%
D11*
%TO.C,U5*%
X258600000Y-56250000D03*
D12*
X258600000Y-58750000D03*
X261400000Y-58750000D03*
X261400000Y-56250000D03*
%TD*%
D13*
%TO.C,SW2*%
X149069440Y-129200336D03*
X140930561Y-130199665D03*
D14*
X143014908Y-129943739D03*
D15*
X145000000Y-129700000D03*
X146985093Y-129456262D03*
%TD*%
D11*
%TO.C,U6*%
X253100000Y-123250000D03*
D12*
X253100000Y-125750000D03*
X255900000Y-125750000D03*
X255900000Y-123250000D03*
%TD*%
D16*
%TO.C,J12*%
X196403092Y-45641437D03*
D17*
X196712640Y-43120370D03*
X198924159Y-45950985D03*
X199233707Y-43429918D03*
X201445226Y-46260533D03*
X201754775Y-43739466D03*
X203966294Y-46570081D03*
X204275842Y-44049014D03*
X206487361Y-46879630D03*
X206796909Y-44358562D03*
%TD*%
D18*
%TO.C,J16*%
X52200000Y-84200000D03*
D19*
X49660000Y-84200000D03*
X47120000Y-84200000D03*
X44580000Y-84200000D03*
X42040000Y-84200000D03*
X39500000Y-84200000D03*
%TD*%
D11*
%TO.C,U9*%
X242000000Y-25000000D03*
D12*
X242000000Y-27500000D03*
X244800000Y-27500000D03*
X244800000Y-25000000D03*
%TD*%
D20*
%TO.C,H7*%
X64000000Y-134500000D03*
%TD*%
D11*
%TO.C,U8*%
X242000000Y-137500000D03*
D12*
X242000000Y-140000000D03*
X244800000Y-140000000D03*
X244800000Y-137500000D03*
%TD*%
D20*
%TO.C,H2*%
X64000000Y-30500000D03*
%TD*%
%TO.C,H8*%
X27500000Y-134500000D03*
%TD*%
D18*
%TO.C,J18*%
X205100000Y-103725000D03*
D19*
X205100000Y-106265000D03*
X205100000Y-108805000D03*
%TD*%
D20*
%TO.C,H12*%
X253000000Y-82500000D03*
%TD*%
D21*
%TO.C,J2*%
X154121068Y-43059548D03*
D22*
X149078934Y-42440452D03*
%TD*%
D23*
%TO.C,J3*%
X114009548Y-125121068D03*
D22*
X113390452Y-120078934D03*
%TD*%
D11*
%TO.C,U1*%
X261600000Y-81250000D03*
D12*
X261600000Y-83750000D03*
X264400000Y-83750000D03*
X264400000Y-81250000D03*
%TD*%
D18*
%TO.C,J17*%
X215850000Y-109425000D03*
D19*
X215850000Y-111965000D03*
X215850000Y-114505000D03*
%TD*%
D24*
%TO.C,J11*%
X25247500Y-71070000D03*
D17*
X27787500Y-71070000D03*
X25247500Y-73610000D03*
X27787500Y-73610000D03*
X25247500Y-76150000D03*
X27787500Y-76150000D03*
X25247500Y-78690000D03*
X27787500Y-78690000D03*
X25247500Y-81230000D03*
X27787500Y-81230000D03*
X25247500Y-83770000D03*
X27787500Y-83770000D03*
X25247500Y-86310000D03*
X27787500Y-86310000D03*
X25247500Y-88850000D03*
X27787500Y-88850000D03*
X25247500Y-91390000D03*
X27787500Y-91390000D03*
X25247500Y-93930000D03*
X27787500Y-93930000D03*
%TD*%
D25*
%TO.C,J4*%
X165456652Y-121767563D03*
X166300316Y-121663974D03*
X167143980Y-121560385D03*
X167987645Y-121456796D03*
X168831309Y-121353207D03*
X169674973Y-121249618D03*
X170518637Y-121146029D03*
X171362302Y-121042440D03*
X171526825Y-122382378D03*
X170683161Y-122485967D03*
X169839497Y-122589556D03*
X168995833Y-122693145D03*
X168152168Y-122796733D03*
X167308504Y-122900322D03*
X166464840Y-123003911D03*
X165621176Y-123107500D03*
D26*
X172821671Y-121850612D03*
X164236147Y-122904782D03*
D27*
X164648065Y-126259588D03*
X173233589Y-125205418D03*
%TD*%
D28*
%TO.C,J14*%
X196626130Y-110797332D03*
D29*
X196935678Y-113318399D03*
X197245226Y-115839466D03*
X197554774Y-118360534D03*
X197864323Y-120881601D03*
X198173871Y-123402668D03*
%TD*%
D18*
%TO.C,J6*%
X209025000Y-76975000D03*
D19*
X211565000Y-76975000D03*
X209025000Y-79515000D03*
X211565000Y-79515000D03*
%TD*%
D30*
%TO.C,J5*%
X155496051Y-91303949D03*
D31*
X153700000Y-93100000D03*
X151903949Y-94896051D03*
%TD*%
D20*
%TO.C,H14*%
X248000000Y-33500000D03*
%TD*%
D32*
%TO.C,H6*%
X192000000Y-89866000D03*
%TD*%
D16*
%TO.C,J13*%
X166303092Y-41891437D03*
D17*
X166612640Y-39370370D03*
X168824159Y-42200985D03*
X169133707Y-39679918D03*
X171345226Y-42510533D03*
X171654775Y-39989466D03*
X173866294Y-42820081D03*
X174175842Y-40299014D03*
X176387361Y-43129630D03*
X176696909Y-40608562D03*
%TD*%
D11*
%TO.C,U2*%
X261600000Y-91250000D03*
D12*
X261600000Y-93750000D03*
X264400000Y-93750000D03*
X264400000Y-91250000D03*
%TD*%
D18*
%TO.C,J19*%
X174710000Y-86300000D03*
D19*
X177250000Y-86300000D03*
X174710000Y-83760000D03*
X177250000Y-83760000D03*
X174710000Y-81220000D03*
X177250000Y-81220000D03*
X174710000Y-78680000D03*
X177250000Y-78680000D03*
%TD*%
D18*
%TO.C,J9*%
X136100000Y-36040000D03*
D19*
X136100000Y-33500000D03*
X133560000Y-36040000D03*
X133560000Y-33500000D03*
X131020000Y-36040000D03*
X131020000Y-33500000D03*
X128480000Y-36040000D03*
X128480000Y-33500000D03*
%TD*%
D20*
%TO.C,H13*%
X253000000Y-115500000D03*
%TD*%
D11*
%TO.C,U7*%
X253100000Y-39250000D03*
D12*
X253100000Y-41750000D03*
X255900000Y-41750000D03*
X255900000Y-39250000D03*
%TD*%
D18*
%TO.C,J10*%
X161825000Y-92125000D03*
D19*
X164365000Y-92125000D03*
X161825000Y-94665000D03*
X164365000Y-94665000D03*
%TD*%
D33*
%TO.C,BT2*%
X80000000Y-110100000D03*
X64000000Y-54900000D03*
D34*
X64000000Y-118430000D03*
%TD*%
D35*
%TO.C,TP1*%
X234250000Y-80050000D03*
%TD*%
D20*
%TO.C,H9*%
X26500000Y-47500000D03*
%TD*%
%TO.C,H15*%
X253000000Y-49500000D03*
%TD*%
D11*
%TO.C,U3*%
X261600000Y-71250000D03*
D12*
X261600000Y-73750000D03*
X264400000Y-73750000D03*
X264400000Y-71250000D03*
%TD*%
D20*
%TO.C,H5*%
X26500000Y-117500000D03*
%TD*%
D18*
%TO.C,J15*%
X39500000Y-80700000D03*
D19*
X42040000Y-80700000D03*
X44580000Y-80700000D03*
X47120000Y-80700000D03*
X49660000Y-80700000D03*
X52200000Y-80700000D03*
%TD*%
D20*
%TO.C,H10*%
X116500000Y-132500000D03*
%TD*%
D36*
%TO.C,J1*%
X103111107Y-124447332D03*
D37*
X103878884Y-130700373D03*
D38*
X108228750Y-126740743D03*
%TD*%
D33*
%TO.C,BT1*%
X85500000Y-54900000D03*
X101500000Y-110100000D03*
D34*
X85500000Y-118430000D03*
%TD*%
D18*
%TO.C,J8*%
X230500000Y-87610000D03*
D19*
X230500000Y-85070000D03*
X230500000Y-82530000D03*
X230500000Y-79990000D03*
X230500000Y-77450000D03*
%TD*%
D35*
%TO.C,TP2*%
X175650000Y-123800000D03*
%TD*%
D20*
%TO.C,H3*%
X27500000Y-30500000D03*
%TD*%
%TO.C,H4*%
X116500000Y-32500000D03*
%TD*%
%TO.C,H11*%
X248000000Y-131500000D03*
%TD*%
D32*
%TO.C,H1*%
X192000000Y-75134000D03*
%TD*%
D39*
%TO.C,R47*%
X31312500Y-124800000D03*
X29487500Y-124800000D03*
%TD*%
D40*
%TO.C,U30*%
X45050000Y-104150000D03*
X45550000Y-104150000D03*
X46050000Y-104150000D03*
X46550000Y-104150000D03*
X46550000Y-106050000D03*
X46050000Y-106050000D03*
X45550000Y-106050000D03*
X45050000Y-106050000D03*
D41*
X45800000Y-105100000D03*
%TD*%
D39*
%TO.C,R43*%
X29612500Y-36800000D03*
X27787500Y-36800000D03*
%TD*%
D42*
%TO.C,D2*%
X158450000Y-127900000D03*
X154450000Y-127900000D03*
%TD*%
D43*
%TO.C,D16*%
X186550000Y-121800000D03*
X183450000Y-121800000D03*
X183450000Y-123200000D03*
X186550000Y-123200000D03*
%TD*%
D44*
%TO.C,C46*%
X75100000Y-92875000D03*
X75100000Y-94425000D03*
%TD*%
D45*
%TO.C,R33*%
X237100000Y-42500000D03*
X238647688Y-41532898D03*
%TD*%
D46*
%TO.C,R10*%
X154912500Y-125550000D03*
X153087500Y-125550000D03*
%TD*%
D47*
%TO.C,Q4*%
X160600000Y-124837500D03*
X158700000Y-124837500D03*
X159650000Y-122962500D03*
%TD*%
D48*
%TO.C,R37*%
X237026156Y-124916449D03*
X238573844Y-125883551D03*
%TD*%
D49*
%TO.C,R7*%
X143037500Y-119250000D03*
X144862500Y-119250000D03*
%TD*%
D50*
%TO.C,C47*%
X43475000Y-86400000D03*
X41925000Y-86400000D03*
%TD*%
D51*
%TO.C,R117*%
X46800000Y-108287500D03*
X46800000Y-110112500D03*
%TD*%
D39*
%TO.C,R46*%
X31312500Y-122800000D03*
X29487500Y-122800000D03*
%TD*%
D52*
%TO.C,Q7*%
X143250000Y-122412500D03*
X145150000Y-122412500D03*
X144200000Y-124287500D03*
%TD*%
D53*
%TO.C,R49*%
X70300000Y-132287500D03*
X70300000Y-134112500D03*
%TD*%
D44*
%TO.C,C42*%
X48950000Y-57325000D03*
X48950000Y-58875000D03*
%TD*%
D54*
%TO.C,C4*%
X135225000Y-119650000D03*
X136775000Y-119650000D03*
%TD*%
D55*
%TO.C,R41*%
X179487500Y-121600000D03*
X181312500Y-121600000D03*
%TD*%
D46*
%TO.C,R109*%
X71212500Y-63700000D03*
X69387500Y-63700000D03*
%TD*%
D44*
%TO.C,C50*%
X42350000Y-102125000D03*
X42350000Y-103675000D03*
%TD*%
D39*
%TO.C,R44*%
X29612500Y-38800000D03*
X27787500Y-38800000D03*
%TD*%
D50*
%TO.C,C48*%
X46575000Y-102250000D03*
X45025000Y-102250000D03*
%TD*%
D55*
%TO.C,R39*%
X179500000Y-125600000D03*
X181325000Y-125600000D03*
%TD*%
D56*
%TO.C,C40*%
X51200000Y-62075000D03*
X51200000Y-59125000D03*
%TD*%
D53*
%TO.C,R54*%
X122000000Y-126787500D03*
X122000000Y-128612500D03*
%TD*%
D57*
%TO.C,R12*%
X159750000Y-120812500D03*
X159750000Y-118987500D03*
%TD*%
D58*
%TO.C,U29*%
X73225000Y-97200000D03*
X72575000Y-97200000D03*
X71925000Y-97200000D03*
X71275000Y-97200000D03*
X71275000Y-92900000D03*
X71925000Y-92900000D03*
X72575000Y-92900000D03*
X73225000Y-92900000D03*
%TD*%
%TO.C,U28*%
X71675000Y-69250000D03*
X72325000Y-69250000D03*
X72975000Y-69250000D03*
X73625000Y-69250000D03*
X73625000Y-73550000D03*
X72975000Y-73550000D03*
X72325000Y-73550000D03*
X71675000Y-73550000D03*
%TD*%
D54*
%TO.C,C43*%
X45175000Y-63350000D03*
X46725000Y-63350000D03*
%TD*%
D59*
%TO.C,R52*%
X70600000Y-32912500D03*
X70600000Y-31087500D03*
%TD*%
%TO.C,R30*%
X121300000Y-40112500D03*
X121300000Y-38287500D03*
%TD*%
D43*
%TO.C,D19*%
X71550000Y-136800000D03*
X68450000Y-136800000D03*
X68450000Y-138200000D03*
X71550000Y-138200000D03*
%TD*%
D59*
%TO.C,R31*%
X125300000Y-40112500D03*
X125300000Y-38287500D03*
%TD*%
D60*
%TO.C,Q18*%
X78037500Y-58400000D03*
X78037500Y-60300000D03*
X76162500Y-59350000D03*
%TD*%
D51*
%TO.C,R114*%
X85450000Y-59387500D03*
X85450000Y-61212500D03*
%TD*%
D60*
%TO.C,Q17*%
X77987500Y-63500000D03*
X77987500Y-65400000D03*
X76112500Y-64450000D03*
%TD*%
D49*
%TO.C,R6*%
X125087500Y-119550000D03*
X126912500Y-119550000D03*
%TD*%
D54*
%TO.C,C44*%
X48125000Y-78500000D03*
X49675000Y-78500000D03*
%TD*%
D43*
%TO.C,D1*%
X183450000Y-43200000D03*
X186550000Y-43250000D03*
X186550000Y-41800000D03*
X183450000Y-41800000D03*
%TD*%
D42*
%TO.C,D3*%
X124950000Y-115350000D03*
X120950000Y-115350000D03*
%TD*%
D61*
%TO.C,C51*%
X40050000Y-102175000D03*
X40050000Y-105125000D03*
%TD*%
D62*
%TO.C,C45*%
X75450000Y-74500000D03*
X75450000Y-72950000D03*
%TD*%
D51*
%TO.C,R112*%
X46900000Y-54537500D03*
X46900000Y-56362500D03*
%TD*%
D57*
%TO.C,R111*%
X75950000Y-70662500D03*
X75950000Y-68837500D03*
%TD*%
D59*
%TO.C,R29*%
X183200000Y-47912500D03*
X183200000Y-46087500D03*
%TD*%
D53*
%TO.C,R50*%
X68300000Y-132287500D03*
X68300000Y-134112500D03*
%TD*%
%TO.C,R55*%
X124000000Y-126787500D03*
X124000000Y-128612500D03*
%TD*%
D50*
%TO.C,C52*%
X169875000Y-126750000D03*
X168325000Y-126750000D03*
%TD*%
D57*
%TO.C,R113*%
X45350000Y-56362500D03*
X45350000Y-54537500D03*
%TD*%
D53*
%TO.C,R56*%
X126000000Y-126787500D03*
X126000000Y-128612500D03*
%TD*%
D43*
%TO.C,D13*%
X121900000Y-33900000D03*
X125000000Y-33900000D03*
X125000000Y-32500000D03*
X121900000Y-32500000D03*
%TD*%
D40*
%TO.C,U27*%
X46650000Y-60850000D03*
X46150000Y-60850000D03*
X45650000Y-60850000D03*
X45150000Y-60850000D03*
X45150000Y-58950000D03*
X45650000Y-58950000D03*
X46150000Y-58950000D03*
X46650000Y-58950000D03*
D41*
X45900000Y-59900000D03*
%TD*%
D63*
%TO.C,D15*%
X243200000Y-129050000D03*
X243200000Y-125950000D03*
X241800000Y-125950000D03*
X241800000Y-129050000D03*
%TD*%
D45*
%TO.C,R35*%
X234900000Y-39300000D03*
X236447688Y-38332898D03*
%TD*%
D51*
%TO.C,R115*%
X82350000Y-59387500D03*
X82350000Y-61212500D03*
%TD*%
D63*
%TO.C,D18*%
X25700000Y-126550000D03*
X25700000Y-123450000D03*
X24300000Y-123450000D03*
X24300000Y-126550000D03*
%TD*%
D43*
%TO.C,D20*%
X71550000Y-26800000D03*
X68450000Y-26800000D03*
X68450000Y-28200000D03*
X71550000Y-28200000D03*
%TD*%
D59*
%TO.C,R32*%
X123300000Y-40112500D03*
X123300000Y-38287500D03*
%TD*%
D49*
%TO.C,R16*%
X128887500Y-112700000D03*
X130712500Y-112700000D03*
%TD*%
D39*
%TO.C,R45*%
X31312500Y-126800000D03*
X29487500Y-126800000D03*
%TD*%
D46*
%TO.C,R110*%
X71212500Y-60950000D03*
X69387500Y-60950000D03*
%TD*%
D62*
%TO.C,C41*%
X48950000Y-62075000D03*
X48950000Y-60525000D03*
%TD*%
D59*
%TO.C,R27*%
X181000000Y-47912500D03*
X181000000Y-46087500D03*
%TD*%
D57*
%TO.C,R116*%
X45300000Y-110112500D03*
X45300000Y-108287500D03*
%TD*%
D39*
%TO.C,R42*%
X29612500Y-34800000D03*
X27787500Y-34800000D03*
%TD*%
D46*
%TO.C,R14*%
X155012500Y-119250000D03*
X153187500Y-119250000D03*
%TD*%
D59*
%TO.C,R51*%
X72600000Y-32912500D03*
X72600000Y-31087500D03*
%TD*%
D55*
%TO.C,R40*%
X179487500Y-123600000D03*
X181312500Y-123600000D03*
%TD*%
D46*
%TO.C,R18*%
X144862500Y-117250000D03*
X143037500Y-117250000D03*
%TD*%
D53*
%TO.C,R48*%
X72300000Y-132287500D03*
X72300000Y-134112500D03*
%TD*%
D59*
%TO.C,R28*%
X185400000Y-47912500D03*
X185400000Y-46087500D03*
%TD*%
D43*
%TO.C,D21*%
X121900000Y-132500000D03*
X125000000Y-132500000D03*
X125000000Y-131100000D03*
X121900000Y-131100000D03*
%TD*%
D63*
%TO.C,D14*%
X243200000Y-39050000D03*
X243200000Y-35950000D03*
X241800000Y-35950000D03*
X241800000Y-39050000D03*
%TD*%
D46*
%TO.C,R9*%
X155012500Y-122450000D03*
X153187500Y-122450000D03*
%TD*%
D48*
%TO.C,R36*%
X236026156Y-126516449D03*
X237573844Y-127483551D03*
%TD*%
D63*
%TO.C,D17*%
X25700000Y-41550000D03*
X25700000Y-38450000D03*
X24300000Y-38450000D03*
X24300000Y-41550000D03*
%TD*%
D55*
%TO.C,R53*%
X63387500Y-25400000D03*
X65212500Y-25400000D03*
%TD*%
D48*
%TO.C,R38*%
X238026156Y-123316449D03*
X239573844Y-124283551D03*
%TD*%
D62*
%TO.C,C49*%
X42350000Y-107225000D03*
X42350000Y-105675000D03*
%TD*%
D45*
%TO.C,R34*%
X236000000Y-40900000D03*
X237547688Y-39932898D03*
%TD*%
M02*
