M48
; DRILL file {KiCad (6.0.2)} date Tue Aug 16 13:23:41 2022
; FORMAT={-:-/ absolute / inch / decimal}
; #@! TF.CreationDate,2022-08-16T13:23:41+02:00
; #@! TF.GenerationSoftware,Kicad,Pcbnew,(6.0.2)
; #@! TF.FileFunction,Plated,1,2,PTH
FMAT,2
INCH
; #@! TA.AperFunction,Plated,PTH,ComponentDrill
T1C0.0098
; #@! TA.AperFunction,Plated,PTH,ViaDrill
T2C0.0118
; #@! TA.AperFunction,Plated,PTH,ViaDrill
T3C0.0157
; #@! TA.AperFunction,Plated,PTH,ComponentDrill
T4C0.0157
; #@! TA.AperFunction,Plated,PTH,ViaDrill
T5C0.0236
; #@! TA.AperFunction,Plated,PTH,ComponentDrill
T6C0.0236
; #@! TA.AperFunction,Plated,PTH,ComponentDrill
T7C0.0315
; #@! TA.AperFunction,Plated,PTH,ComponentDrill
T8C0.0394
; #@! TA.AperFunction,Plated,PTH,ComponentDrill
T9C0.0472
; #@! TA.AperFunction,Plated,PTH,ComponentDrill
T10C0.0591
; #@! TA.AperFunction,Plated,PTH,ComponentDrill
T11C0.0598
; #@! TA.AperFunction,Plated,PTH,ComponentDrill
T12C0.0866
; #@! TA.AperFunction,Plated,PTH,ComponentDrill
T13C0.1260
%
G90
G05
T1
X1.7835Y-4.1378
X1.7874Y-2.3583
X1.8228Y-4.1378
X1.8268Y-2.3583
T2
X0.9236Y-3.2748
X1.1177Y-3.9248
X1.122Y-2.5472
X1.7244Y-2.2756
X1.7446Y-2.251
X1.748Y-2.185
X1.8583Y-4.2047
X1.878Y-4.2953
X1.882Y-4.2293
X2.689Y-3.7441
X2.7598Y-4.0177
X2.8008Y-3.6125
X2.8091Y-2.6673
X2.811Y-5.4921
X2.8681Y-5.3484
X2.9961Y-1.1831
X3.1654Y-2.6713
X3.1791Y-4.0374
X3.2323Y-4.2087
X3.2874Y-4.5866
X3.876Y-5.2067
X3.878Y-5.1181
X4.0374Y-1.3898
X4.063Y-1.3228
X4.0886Y-4.6831
X4.1083Y-1.2343
X4.1083Y-1.3937
X4.1496Y-4.0492
X4.1575Y-1.8228
X4.1654Y-4.2047
X4.252Y-3.2815
X4.2579Y-4.065
X4.2815Y-2.1161
X4.2953Y-1.8307
X4.3071Y-2.876
X4.311Y-2.4724
X4.313Y-2.6063
X4.3602Y-2.9961
X4.3622Y-3.6703
X4.374Y-2.9547
X4.3996Y-3.0295
X4.3996Y-3.3061
X4.4002Y-4.8138
X4.439Y-1.9941
X4.4409Y-3.0354
X4.4441Y-3.621
X4.4724Y-2.0187
X4.4724Y-3.0492
X4.4724Y-3.0866
X4.5039Y-1.9508
X4.5079Y-4.8091
X4.5148Y-2.982
X4.5335Y-2.2264
X4.5391Y-2.8615
X4.5404Y-2.2756
X4.5411Y-3.5935
X4.5433Y-1.8189
X4.5448Y-4.813
X4.566Y-2.8871
X4.5684Y-3.5778
X4.5709Y-1.9646
X4.5768Y-1.5197
X4.5933Y-3.5586
X4.5955Y-2.6674
X4.6189Y-2.6884
X4.6191Y-3.5405
X4.6358Y-1.4469
X4.6417Y-2.6339
X4.6516Y-4.2028
X4.6521Y-3.504
X4.6752Y-2.0728
X4.68Y-3.4884
X4.6988Y-5.0039
X4.7018Y-2.5158
X4.7028Y-3.4666
X4.7185Y-1.8563
X4.7264Y-2.0472
X4.7264Y-3.4075
X4.7264Y-3.9685
X4.7274Y-3.4438
X4.7441Y-1.9055
X4.7527Y-3.1394
X4.7539Y-2.7421
X4.7579Y-2.1575
X4.7579Y-3.7028
X4.7579Y-3.9882
X4.7588Y-3.4716
X4.7638Y-5.2657
X4.7677Y-2.9921
X4.7755Y-1.7933
X4.7776Y-3.1201
X4.78Y-3.4483
X4.7933Y-2.4488
X4.7933Y-2.7461
X4.7972Y-4.002
X4.8031Y-1.7402
X4.813Y-3.3524
X4.8228Y-2.9764
X4.8231Y-3.938
X4.8268Y-4.0354
X4.8287Y-2.2165
X4.8287Y-2.7205
X4.8439Y-4.8917
X4.8504Y-1.9232
X4.8543Y-2.4173
X4.8543Y-3.3268
X4.8563Y-2.752
X4.876Y-4.1535
X4.8878Y-1.9252
X4.8961Y-4.1293
X4.9016Y-3.3622
X4.9047Y-3.3949
X4.9134Y-3.4252
X4.9154Y-4.1043
X4.9173Y-4.9016
X4.9311Y-4.0748
X4.9429Y-2.8898
X4.9449Y-1.7933
X4.9549Y-3.4307
X4.9903Y-1.6278
X4.9921Y-1.5689
X5.0081Y-2.866
X5.0236Y-1.8189
X5.0512Y-3.5669
X5.0551Y-5.185
X5.0588Y-3.6195
X5.0591Y-1.9528
X5.0703Y-3.681
X5.0728Y-3.6476
X5.0748Y-4.8209
X5.0807Y-3.7153
X5.0923Y-2.7771
X5.0954Y-3.5915
X5.0965Y-3.4783
X5.1004Y-4.1634
X5.1096Y-1.9541
X5.1122Y-2.3002
X5.1142Y-3.7167
X5.127Y-4.1391
X5.1329Y-2.628
X5.134Y-2.6659
X5.1447Y-1.9537
X5.1506Y-2.3853
X5.1516Y-4.1083
X5.1526Y-2.1407
X5.1765Y-4.0797
X5.1791Y-3.3091
X5.2106Y-3.2894
X5.2272Y-1.9366
X5.2352Y-3.1505
X5.2382Y-2.4646
X5.2382Y-3.1083
X5.2392Y-2.3514
X5.2529Y-2.2465
X5.2618Y-1.9567
X5.2657Y-3.1752
X5.2748Y-2.3175
X5.2816Y-2.2057
X5.2874Y-3.3169
X5.2992Y-3.4114
X5.3012Y-1.9577
X5.3238Y-2.5301
X5.3238Y-2.7541
X5.3327Y-1.8563
X5.3327Y-1.9016
X5.3402Y-3.6752
X5.3445Y-1.8189
X5.3484Y-3.0354
X5.3506Y-2.1231
X5.3706Y-3.667
X5.3858Y-4.0472
X5.3878Y-1.5945
X5.3878Y-2.561
X5.3878Y-3.1339
X5.3927Y-3.6447
X5.4127Y-3.9105
X5.4173Y-2.8661
X5.4409Y-4.8012
X5.4429Y-2.9843
X5.4488Y-2.4921
X5.4528Y-2.7657
X5.4528Y-3.9665
X5.4587Y-1.5984
X5.4685Y-4.2795
X5.4705Y-3.4646
X5.4803Y-2.6516
X5.486Y-2.4498
X5.4902Y-3.6378
X5.5197Y-3.4409
X5.5315Y-2.9744
X5.5374Y-2.1142
X5.5413Y-3.6457
X5.5413Y-5.0098
X5.5474Y-2.6553
X5.5492Y-3.5728
X5.565Y-3.0079
X5.5787Y-3.0591
X5.5807Y-3.624
X5.5907Y-2.062
X5.5965Y-3.3661
X5.6004Y-1.9305
X5.6026Y-3.3059
X5.6063Y-3.9429
X5.6082Y-2.8669
X5.6201Y-3.3366
X5.6328Y-2.8468
X5.6345Y-3.2568
X5.6417Y-3.0965
X5.6452Y-3.1796
X5.6489Y-3.2288
X5.6535Y-1.7795
X5.6542Y-2.0925
X5.6575Y-2.878
X5.6596Y-3.2786
X5.6633Y-3.1236
X5.6714Y-3.154
X5.6949Y-4.4488
X5.7008Y-4.1575
X5.7126Y-1.9931
X5.7854Y-4.6594
X5.7913Y-3.4606
X5.7913Y-3.687
X5.815Y-3.8957
X5.8366Y-4.3957
X5.8366Y-4.4547
X5.8386Y-2.8425
X5.8494Y-2.0206
X5.8602Y-4.935
X5.862Y-3.5783
X5.8799Y-4.1299
X5.8819Y-3.7244
X5.8819Y-4.3898
X5.8957Y-2.5807
X5.8967Y-3.7564
X5.9188Y-2.9326
X5.9217Y-2.56
X5.9272Y-4.3543
X5.9311Y-4.1319
X5.939Y-1.9626
X5.9469Y-2.9823
X5.9508Y-2.9429
X5.9577Y-2.6929
X5.9616Y-2.3001
X5.9744Y-4.8031
X5.9803Y-2.9921
X5.9882Y-3.1841
X5.9882Y-3.4173
X5.9902Y-4.4252
X6.0118Y-2.3868
X6.0118Y-3.061
X6.0141Y-2.3554
X6.0256Y-4.5315
X6.063Y-3.0256
X6.0728Y-2.3228
X6.0856Y-3.3455
X6.0965Y-4.4094
X6.1004Y-3.4823
X6.1102Y-1.8681
X6.1102Y-2.3524
X6.1306Y-4.2902
X6.1319Y-4.0256
X6.1417Y-3.5256
X6.1417Y-3.6634
X6.1457Y-3.2736
X6.1476Y-4.9055
X6.1476Y-5.0315
X6.1575Y-4.0492
X6.1614Y-3.3031
X6.1654Y-4.3858
X6.1658Y-4.3496
X6.1791Y-3.4114
X6.1801Y-4.7677
X6.1811Y-3.4508
X6.1851Y-3.9468
X6.1871Y-3.2509
X6.1949Y-4.4921
X6.1978Y-4.1366
X6.2059Y-4.5498
X6.2067Y-4.7913
X6.2273Y-3.2332
X6.2283Y-2.9252
X6.2287Y-2.0482
X6.2352Y-4.1447
X6.2382Y-4.4213
X6.2388Y-4.3484
X6.251Y-4.748
X6.2539Y-4.563
X6.2677Y-3.25
X6.2913Y-3.4429
X6.2972Y-3.5728
X6.3248Y-4.7953
X6.3602Y-4.3661
X6.3661Y-3.2795
X6.3799Y-4.9646
X6.3878Y-4.3268
X6.3917Y-4.5079
X6.4035Y-3.061
X6.4078Y-3.4439
X6.4154Y-2.3878
X6.4154Y-4.6102
X6.4291Y-3.0256
X6.4345Y-1.9734
X6.4354Y-4.3061
X6.4434Y-3.5482
X6.4449Y-3.2067
X6.4587Y-4.4665
X6.4606Y-2.3268
X6.4783Y-3.0846
X6.4803Y-1.9705
X6.4843Y-3.0433
X6.4941Y-4.5315
X6.5157Y-4.0079
X6.5454Y-4.0325
X6.5473Y-3.8218
X6.5728Y-2.3091
X6.5798Y-4.2077
X6.5925Y-1.9567
X6.6015Y-2.3336
X6.6142Y-4.6102
X6.6319Y-2.3583
X6.633Y-3.8946
X6.6362Y-4.0968
X6.6376Y-4.1594
X6.6497Y-4.2118
X6.6555Y-4.0354
X6.6614Y-3.9606
X6.6634Y-2.3829
X6.6713Y-4.0965
X6.685Y-4.5197
X6.6909Y-3.0433
X6.6909Y-3.6988
X6.6929Y-2.8839
X6.6949Y-4.0059
X6.7047Y-4.4843
X6.7185Y-3.0827
X6.7205Y-2.9114
X6.7362Y-3.7008
X6.7505Y-3.871
X6.7505Y-2.5818
X6.7636Y-3.5237
X6.7874Y-4.3091
X6.7913Y-3.7382
X6.8002Y-3.2087
X6.814Y-4.5237
X6.8661Y-4.5768
X6.874Y-2.876
X6.9035Y-2.6772
X6.9049Y-2.9114
X6.9055Y-2.5866
X6.9429Y-2.2756
X6.9906Y-1.9956
X7.0127Y-2.4458
X7.0394Y-4.6594
X7.0482Y-2.9941
X7.0508Y-2.497
X7.0567Y-3.4892
X7.0571Y-2.1319
X7.0591Y-2.3878
X7.0728Y-2.7539
X7.0728Y-3.878
X7.0876Y-3.9538
X7.0906Y-4.063
X7.1024Y-3.7106
X7.1142Y-2.1693
X7.1142Y-3.4665
X7.136Y-4.062
X7.1378Y-4.2421
X7.1417Y-3.2303
X7.1732Y-1.5177
X7.1831Y-4.7283
X7.1929Y-3.6693
X7.1947Y-4.0679
X7.1949Y-4.2421
X7.2283Y-3.3681
X7.2285Y-4.0679
X7.2306Y-4.2419
X7.252Y-1.9331
X7.2677Y-3.3051
X7.2677Y-4.2421
X7.2679Y-4.0679
X7.2761Y-2.0492
X7.2864Y-4.4252
X7.2953Y-2.9921
X7.3012Y-3.8031
X7.3012Y-4.0433
X7.3199Y-4.0789
X7.3356Y-4.4588
X7.3425Y-2.9232
X7.3504Y-3.5965
X7.3543Y-2.6516
X7.3554Y-3.8229
X7.3661Y-3.0551
X7.3721Y-3.8496
X7.374Y-2.5276
X7.374Y-2.7992
X7.3878Y-4.0689
X7.3996Y-4.3327
X7.4075Y-1.876
X7.4094Y-3.9331
X7.4114Y-4.0394
X7.4154Y-3.1831
X7.4154Y-3.3228
X7.4272Y-3.0295
X7.4291Y-4.3917
X7.4428Y-1.5906
X7.4567Y-4.7303
X7.4941Y-4.6594
X7.5079Y-3.2933
X7.5354Y-3.876
X7.5787Y-4.0827
X7.6168Y-3.0715
X7.6319Y-2.4124
X7.6575Y-3.0276
X7.6614Y-4.5866
X7.7106Y-2.4882
X7.7106Y-4.2343
X7.7618Y-3.4724
X7.7736Y-3.1929
X7.7776Y-2.9547
X7.7795Y-2.126
X7.8051Y-4.5079
X7.8406Y-3.3465
X7.8799Y-2.1614
X7.9311Y-2.2205
X7.939Y-4.7421
X7.9823Y-2.189
X8.0315Y-2.2461
X8.128Y-2.2795
X8.2618Y-2.3878
X8.3957Y-3.4429
X8.439Y-3.3406
X8.4665Y-3.2756
X8.4941Y-2.1969
X8.5295Y-2.2028
X8.5308Y-2.2375
X8.565Y-2.2382
X8.5669Y-3.126
X8.9213Y-1.8327
X8.9626Y-3.4469
X8.9665Y-3.5551
X9.1496Y-3.4803
X9.1909Y-3.2874
X9.2697Y-2.9528
X9.3602Y-3.4528
X9.439Y-3.0906
X9.5295Y-3.3425
X9.5394Y-3.4941
X9.5512Y-5.1693
X9.5965Y-1.8661
X9.6398Y-4.3898
X9.6555Y-4.872
X9.6575Y-2.6398
X9.6693Y-2.0551
X9.6909Y-3.8189
X9.6959Y-4.5683
X9.7106Y-1.9193
X9.711Y-3.2473
X9.7185Y-2.4626
X9.7205Y-2.6476
X9.7224Y-1.7244
X9.748Y-4.0472
X9.7579Y-4.9882
X9.7598Y-3.4213
X9.7736Y-2.9469
X9.7756Y-4.5846
X9.7842Y-1.5554
X9.7854Y-3.2382
X9.7894Y-3.8484
X9.8287Y-3.0197
X9.8287Y-4.685
X9.8445Y-2.0689
X9.8445Y-2.565
X9.8878Y-2.6457
X9.9843Y-3.9646
X10.0098Y-3.7461
X10.0217Y-2.2008
X10.0335Y-4.3484
X10.1004Y-2.4587
X10.1063Y-3.1043
X10.1142Y-3.3248
X10.1142Y-3.4311
X10.1575Y-2.002
X10.1614Y-3.0217
T3
X0.876Y-1.0236
X0.876Y-1.8602
X0.876Y-2.6181
X0.876Y-3.248
X0.876Y-3.878
X0.876Y-4.626
X0.876Y-5.4724
X0.9843Y-0.9154
X0.9843Y-5.5807
X1.3228Y-4.6102
X1.3622Y-1.8937
X1.4272Y-0.9154
X1.4272Y-5.5807
X1.4606Y-1.5492
X1.4803Y-4.4528
X1.5098Y-4.1969
X1.5098Y-4.2362
X1.5197Y-5.3583
X1.5295Y-2.1496
X1.5295Y-2.189
X1.5295Y-2.3268
X1.5295Y-2.3661
X1.5295Y-3.8425
X1.5295Y-3.8819
X1.5295Y-3.9213
X1.5295Y-4.0787
X1.5492Y-4.1969
X1.5492Y-4.2362
X1.5689Y-1.2441
X1.5689Y-2.1496
X1.5689Y-2.189
X1.5689Y-2.3268
X1.5689Y-2.3661
X1.5689Y-3.8425
X1.5689Y-3.8819
X1.5689Y-3.9213
X1.5689Y-4.0787
X1.5787Y-5.0433
X1.5886Y-4.1969
X1.5886Y-4.2362
X1.6083Y-2.1496
X1.6083Y-2.189
X1.6083Y-2.3268
X1.6083Y-2.3661
X1.6083Y-4.0787
X1.628Y-4.1772
X1.6476Y-2.1496
X1.6476Y-2.189
X1.6476Y-2.3268
X1.6476Y-2.3661
X1.6476Y-4.7382
X1.6673Y-3.8425
X1.6673Y-3.8819
X1.6673Y-3.9213
X1.6772Y-1.815
X1.6811Y-4.124
X1.687Y-1.1063
X1.687Y-2.1496
X1.687Y-2.189
X1.687Y-2.3268
X1.687Y-2.3661
X1.687Y-2.4055
X1.687Y-2.4449
X1.687Y-2.6024
X1.687Y-2.6417
X1.687Y-2.6811
X1.7067Y-3.8425
X1.7067Y-3.8819
X1.7067Y-3.9213
X1.7205Y-4.124
X1.7264Y-2.3268
X1.7264Y-2.3661
X1.7264Y-2.4055
X1.7264Y-2.4449
X1.7264Y-2.6024
X1.7264Y-2.6417
X1.7264Y-2.6811
X1.7264Y-4.1772
X1.7559Y-1.5591
X1.7953Y-4.8858
X1.8346Y-1.2539
X1.8642Y-2.622
X1.8642Y-2.6614
X1.8642Y-4.0984
X1.8799Y-2.3524
X1.8839Y-2.3071
X1.8839Y-3.8622
X1.8839Y-3.9016
X1.8839Y-3.9409
X1.8839Y-4.1378
X1.8898Y-0.9154
X1.8898Y-5.5807
X1.9035Y-2.622
X1.9035Y-2.6614
X1.9035Y-4.0787
X1.9035Y-5.0728
X1.9183Y-4.1624
X1.9232Y-3.8622
X1.9232Y-3.9016
X1.9232Y-3.9409
X1.9232Y-4.1181
X1.9232Y-5.3189
X1.9311Y-4.2874
X1.9331Y-1.7461
X1.9429Y-2.622
X1.9429Y-2.6614
X1.9528Y-4.6004
X1.9626Y-4.1181
X1.9626Y-4.1575
X1.9823Y-2.2874
X1.9823Y-2.3858
X1.9823Y-4.2953
X1.9823Y-4.3346
X2.002Y-4.1181
X2.002Y-4.1575
X2.0118Y-4.7677
X2.0217Y-4.2953
X2.0217Y-4.3346
X2.0413Y-2.3858
X2.0413Y-2.622
X2.0413Y-2.6614
X2.0413Y-2.7008
X2.0413Y-4.1181
X2.0413Y-4.1575
X2.061Y-4.2953
X2.061Y-4.3346
X2.0807Y-1.1752
X2.0807Y-2.622
X2.0807Y-2.6614
X2.0807Y-2.7008
X2.0807Y-4.1181
X2.0807Y-4.1575
X2.1004Y-2.2677
X2.1004Y-2.3071
X2.1004Y-2.3465
X2.1004Y-2.3858
X2.1004Y-2.4252
X2.1004Y-2.4646
X2.1004Y-4.2953
X2.1004Y-4.3346
X2.1102Y-1.7756
X2.1201Y-4.1181
X2.1201Y-4.1575
X2.1398Y-1.4016
X2.1398Y-2.2677
X2.1398Y-2.3071
X2.1398Y-2.3465
X2.1398Y-2.3858
X2.1398Y-2.4252
X2.1398Y-2.4646
X2.2185Y-3.1929
X2.2185Y-4.8563
X2.2185Y-5.1614
X2.2283Y-3.311
X2.3524Y-0.9154
X2.3524Y-5.5807
X2.3563Y-3.1929
X2.3563Y-3.311
X2.6319Y-3.9016
X2.6417Y-3.3012
X2.6516Y-3.1929
X2.7603Y-3.6499
X2.7657Y-3.748
X2.8091Y-3.2441
X2.815Y-0.9154
X2.815Y-5.5807
X2.8247Y-2.8316
X2.8445Y-3.0059
X2.8602Y-3.7101
X2.8671Y-2.782
X2.9035Y-2.6181
X2.9075Y-3.7165
X2.9114Y-3.7598
X2.9272Y-2.378
X2.9665Y-3.252
X3.0157Y-3.0079
X3.063Y-3.6614
X3.065Y-4.7087
X3.065Y-4.8465
X3.1043Y-3.252
X3.3012Y-4.8858
X3.3012Y-5.0236
X3.3209Y-3.252
X3.3406Y-3.685
X3.3477Y-0.983
X3.3477Y-5.513
X3.4193Y-4.3346
X3.4783Y-2.7106
X3.4783Y-3.252
X3.498Y-4.8661
X3.5177Y-3.9016
X3.5965Y-3.685
X3.5965Y-4.3543
X3.6555Y-3.252
X3.685Y-2.4547
X3.7244Y-2.1201
X3.7539Y-3.9016
X3.7933Y-4.3346
X3.813Y-3.252
X3.8327Y-3.685
X3.8368Y-1.0451
X3.8368Y-5.4509
X3.872Y-2.7894
X3.9705Y-3.252
X3.9902Y-4.8071
X3.9902Y-5.0236
X4.0098Y-4.7283
X4.1476Y-5.0433
X4.187Y-3.2126
X4.187Y-3.2913
X4.187Y-5.063
X4.2657Y-5.3484
X4.2909Y-1.1028
X4.2909Y-5.3933
X4.3642Y-4.6201
X4.4695Y-3.3819
X4.6201Y-2.189
X4.6201Y-2.435
X4.7087Y-4.7087
X4.78Y-1.1649
X4.78Y-5.3311
X4.7874Y-3.5866
X4.8071Y-3.8425
X4.935Y-3.2224
X4.9449Y-3.1535
X4.9547Y-2.3465
X4.9547Y-3.502
X4.9547Y-3.6466
X4.9646Y-4.2362
X4.9961Y-3.7146
X5.0Y-3.5039
X5.0039Y-3.8425
X5.0453Y-4.7756
X5.0604Y-2.5501
X5.1122Y-3.1831
X5.1293Y-2.5027
X5.1319Y-4.0
X5.1459Y-3.2744
X5.1614Y-3.8425
X5.2106Y-4.0
X5.2341Y-1.2226
X5.2341Y-5.2735
X5.2598Y-3.3701
X5.2992Y-3.8425
X5.378Y-3.2028
X5.3976Y-3.2913
X5.4075Y-3.4291
X5.437Y-4.1476
X5.4488Y-4.4331
X5.4665Y-4.0394
X5.5059Y-3.0748
X5.5059Y-3.2618
X5.5157Y-3.3701
X5.565Y-1.6083
X5.5748Y-3.7933
X5.6161Y-1.876
X5.7224Y-3.8425
X5.7232Y-1.2847
X5.7232Y-5.2113
X5.9094Y-3.1043
X5.9783Y-3.5374
X6.0374Y-3.3701
X6.0571Y-3.1437
X6.2122Y-1.3468
X6.2122Y-5.1492
X6.3327Y-3.9213
X6.34Y-2.0724
X6.372Y-4.0394
X6.4705Y-3.9213
X6.4902Y-3.2618
X6.5098Y-3.1535
X6.6134Y-2.0728
X6.687Y-4.315
X6.7013Y-1.409
X6.7013Y-5.0871
X6.7657Y-3.9409
X6.7657Y-4.0591
X7.0413Y-4.374
X7.2253Y-1.4755
X7.2253Y-5.0206
X7.3366Y-3.4291
X7.4265Y-4.2784
X7.7008Y-4.0
X7.7143Y-1.5376
X7.7143Y-4.9584
X7.8878Y-4.4331
X7.9506Y-4.1551
X7.9665Y-3.9311
X8.0157Y-2.5039
X8.0157Y-4.6201
X8.124Y-2.4646
X8.2034Y-1.5997
X8.2034Y-4.8963
X8.252Y-2.189
X8.4587Y-1.9331
X8.5527Y-1.6441
X8.5527Y-4.852
X8.937Y-1.6929
X8.937Y-4.8031
X9.0394Y-1.9921
X9.3944Y-5.5785
X9.3979Y-0.915
X9.4196Y-5.3522
X9.4229Y-1.1409
X9.4449Y-5.126
X9.4482Y-1.3671
X9.5413Y-1.6575
X9.5709Y-3.2205
X9.6181Y-5.5784
X9.6201Y-2.6732
X9.6216Y-0.915
X9.6378Y-1.5551
X9.6496Y-2.8681
X9.6504Y-3.2491
X9.6614Y-4.0827
X9.6732Y-3.4646
X9.6772Y-3.0551
X9.689Y-2.1614
X9.7318Y-4.6185
X9.829Y-5.5785
X9.8327Y-0.9154
X9.9134Y-4.7087
X10.0118Y-1.752
X10.187Y-1.5846
X10.187Y-4.9016
X10.2402Y-2.1339
X10.4035Y-2.2539
X10.4035Y-4.2323
X10.4094Y-3.4646
X10.4213Y-2.6496
X10.4213Y-3.0591
X10.502Y-2.8543
X10.502Y-3.6417
X10.5196Y-3.2475
T4
X6.514Y-4.794
X6.5205Y-4.8468
X6.5473Y-4.7899
X6.5537Y-4.8427
X6.5805Y-4.7858
X6.5869Y-4.8386
X6.6137Y-4.7818
X6.6202Y-4.8345
X6.6469Y-4.7777
X6.6534Y-4.8304
X6.6801Y-4.7736
X6.6866Y-4.8264
X6.7133Y-4.7695
X6.7198Y-4.8223
X6.7465Y-4.7655
X6.753Y-4.8182
T5
X1.6457Y-3.6535
X1.9882Y-2.9173
X2.4134Y-1.6693
X2.4134Y-1.7244
X2.4488Y-4.5157
X2.4567Y-2.8583
X2.4567Y-2.9055
X2.4567Y-3.0079
X2.4582Y-3.6378
X2.5079Y-4.5157
X2.6535Y-4.1142
X2.6535Y-4.1732
X3.1181Y-5.4606
X3.1703Y-5.4577
X3.5276Y-5.3465
X3.5276Y-5.4055
X4.2106Y-1.6791
X4.3071Y-3.8583
X4.3307Y-2.9232
X4.4724Y-4.1181
X4.4724Y-4.1772
X4.4803Y-4.378
X4.4803Y-4.4331
X4.5039Y-3.7529
X4.6201Y-4.4606
X4.7795Y-4.374
X4.8386Y-4.7126
X4.8386Y-4.7677
X4.8406Y-4.313
X5.9173Y-4.5945
X6.1673Y-1.9016
X6.5256Y-1.9154
X6.6929Y-1.8898
X7.0394Y-1.9449
X7.0397Y-2.0849
X7.624Y-2.0551
X7.8327Y-2.0709
X9.6791Y-1.5039
T7
X5.6305Y-5.1159
X5.7087Y-5.1063
X5.7868Y-5.0967
T8
X0.994Y-2.798
X0.994Y-2.898
X0.994Y-2.998
X0.994Y-3.098
X0.994Y-3.198
X0.994Y-3.298
X0.994Y-3.398
X0.994Y-3.498
X0.994Y-3.598
X0.994Y-3.698
X1.094Y-2.798
X1.094Y-2.898
X1.094Y-2.998
X1.094Y-3.098
X1.094Y-3.198
X1.094Y-3.298
X1.094Y-3.398
X1.094Y-3.498
X1.094Y-3.598
X1.094Y-3.698
X1.5551Y-3.1772
X1.5551Y-3.315
X1.6551Y-3.1772
X1.6551Y-3.315
X1.7551Y-3.1772
X1.7551Y-3.315
X1.8551Y-3.1772
X1.8551Y-3.315
X1.9551Y-3.1772
X1.9551Y-3.315
X2.0551Y-3.1772
X2.0551Y-3.315
X5.0583Y-1.3189
X5.0583Y-1.4189
X5.1583Y-1.3189
X5.1583Y-1.4189
X5.2583Y-1.3189
X5.2583Y-1.4189
X5.3583Y-1.3189
X5.3583Y-1.4189
X5.9805Y-3.7361
X6.0512Y-3.6654
X6.1219Y-3.5946
X6.3711Y-3.627
X6.3711Y-3.727
X6.4711Y-3.627
X6.4711Y-3.727
X6.5474Y-1.6493
X6.5596Y-1.55
X6.6466Y-1.6615
X6.6588Y-1.5622
X6.7459Y-1.6736
X6.7581Y-1.5744
X6.8451Y-1.6858
X6.8573Y-1.5866
X6.8783Y-3.0976
X6.8783Y-3.1976
X6.8783Y-3.2976
X6.8783Y-3.3976
X6.9444Y-1.698
X6.9566Y-1.5988
X6.9783Y-3.0976
X6.9783Y-3.1976
X6.9783Y-3.2976
X6.9783Y-3.3976
X7.7324Y-1.7969
X7.7412Y-4.3621
X7.7446Y-1.6977
X7.7534Y-4.4614
X7.7656Y-4.5606
X7.7777Y-4.6599
X7.7899Y-4.7591
X7.8021Y-4.8584
X7.8317Y-1.8091
X7.8438Y-1.7098
X7.9309Y-1.8213
X7.9431Y-1.722
X8.0302Y-1.8335
X8.0424Y-1.7342
X8.0748Y-4.0837
X8.0748Y-4.1837
X8.0748Y-4.2837
X8.1294Y-1.8457
X8.1416Y-1.7464
X8.2293Y-3.0305
X8.2293Y-3.1305
X8.3293Y-3.0305
X8.3293Y-3.1305
X8.498Y-4.3081
X8.498Y-4.4081
X8.498Y-4.5081
X9.0748Y-3.0492
X9.0748Y-3.1492
X9.0748Y-3.2492
X9.0748Y-3.3492
X9.0748Y-3.4492
X9.5276Y-0.9843
X9.5276Y-1.0827
X9.5276Y-5.4134
X9.5276Y-5.5118
X9.6378Y-0.9843
X9.6378Y-1.0827
X9.6378Y-5.4134
X9.6378Y-5.5118
X9.9646Y-1.5453
X9.9646Y-1.6437
X9.9646Y-4.8524
X9.9646Y-4.9508
X10.0748Y-1.5453
X10.0748Y-1.6437
X10.0748Y-4.8524
X10.0748Y-4.9508
X10.1811Y-2.2146
X10.1811Y-2.313
X10.1811Y-4.1831
X10.1811Y-4.2815
X10.2913Y-2.2146
X10.2913Y-2.313
X10.2913Y-4.1831
X10.2913Y-4.2815
X10.2992Y-2.8051
X10.2992Y-2.9035
X10.2992Y-3.1988
X10.2992Y-3.2972
X10.2992Y-3.5925
X10.2992Y-3.6909
X10.4094Y-2.8051
X10.4094Y-2.9035
X10.4094Y-3.1988
X10.4094Y-3.2972
X10.4094Y-3.5925
X10.4094Y-3.6909
T9
X6.9154Y-4.874
X9.2224Y-3.1516
T10
X5.5484Y-5.126
X5.8689Y-5.0866
T11
X4.4642Y-4.7275
X4.4886Y-4.926
X5.8692Y-1.6709
X6.0678Y-1.6953
T12
X7.5591Y-2.958
X7.5591Y-3.538
T13
X1.0433Y-1.8701
X1.0433Y-4.626
X1.0827Y-1.2008
X1.0827Y-5.2953
X2.5197Y-1.2008
X2.5197Y-5.2953
X4.5866Y-1.2795
X4.5866Y-5.2165
X9.7638Y-1.3189
X9.7638Y-5.1772
X9.9606Y-1.9488
X9.9606Y-3.248
X9.9606Y-4.5472
T6
G00X6.4624Y-4.8095
M15
G01X6.4696Y-4.8681
M16
G05
G00X6.4803Y-4.9552
M15
G01X6.4841Y-4.9865
M16
G05
G00X6.8004Y-4.768
M15
G01X6.8076Y-4.8266
M16
G05
G00X6.8183Y-4.9137
M15
G01X6.8221Y-4.945
M16
G05
T8
G00X4.0087Y-4.9057
M15
G01X4.1103Y-4.8933
M16
G05
G00X4.0467Y-5.151
M15
G01X4.1327Y-5.1404
M16
G05
G00X4.2557Y-4.9468
M15
G01X4.2663Y-5.0328
M16
G05
T0
M30
