%TF.GenerationSoftware,KiCad,Pcbnew,(6.0.2)*%
%TF.CreationDate,2022-08-16T13:23:33+02:00*%
%TF.ProjectId,BeamRider_MainBoard_v1,4265616d-5269-4646-9572-5f4d61696e42,rev?*%
%TF.SameCoordinates,Original*%
%TF.FileFunction,Paste,Top*%
%TF.FilePolarity,Positive*%
%FSLAX46Y46*%
G04 Gerber Fmt 4.6, Leading zero omitted, Abs format (unit mm)*
G04 Created by KiCad (PCBNEW (6.0.2)) date 2022-08-16 13:23:33*
%MOMM*%
%LPD*%
G01*
G04 APERTURE LIST*
G04 Aperture macros list*
%AMRoundRect*
0 Rectangle with rounded corners*
0 $1 Rounding radius*
0 $2 $3 $4 $5 $6 $7 $8 $9 X,Y pos of 4 corners*
0 Add a 4 corners polygon primitive as box body*
4,1,4,$2,$3,$4,$5,$6,$7,$8,$9,$2,$3,0*
0 Add four circle primitives for the rounded corners*
1,1,$1+$1,$2,$3*
1,1,$1+$1,$4,$5*
1,1,$1+$1,$6,$7*
1,1,$1+$1,$8,$9*
0 Add four rect primitives between the rounded corners*
20,1,$1+$1,$2,$3,$4,$5,0*
20,1,$1+$1,$4,$5,$6,$7,0*
20,1,$1+$1,$6,$7,$8,$9,0*
20,1,$1+$1,$8,$9,$2,$3,0*%
%AMRotRect*
0 Rectangle, with rotation*
0 The origin of the aperture is its center*
0 $1 length*
0 $2 width*
0 $3 Rotation angle, in degrees counterclockwise*
0 Add horizontal line*
21,1,$1,$2,0,0,$3*%
G04 Aperture macros list end*
%ADD10RoundRect,0.237500X-0.250000X-0.237500X0.250000X-0.237500X0.250000X0.237500X-0.250000X0.237500X0*%
%ADD11RoundRect,0.225000X0.017678X-0.335876X0.335876X-0.017678X-0.017678X0.335876X-0.335876X0.017678X0*%
%ADD12RoundRect,0.237500X-0.237500X0.250000X-0.237500X-0.250000X0.237500X-0.250000X0.237500X0.250000X0*%
%ADD13R,2.500000X1.800000*%
%ADD14RoundRect,0.250000X0.475000X-0.250000X0.475000X0.250000X-0.475000X0.250000X-0.475000X-0.250000X0*%
%ADD15R,1.400000X2.100000*%
%ADD16RoundRect,0.250000X0.250000X0.475000X-0.250000X0.475000X-0.250000X-0.475000X0.250000X-0.475000X0*%
%ADD17RoundRect,0.200000X0.200000X0.275000X-0.200000X0.275000X-0.200000X-0.275000X0.200000X-0.275000X0*%
%ADD18RoundRect,0.250000X-0.475000X0.250000X-0.475000X-0.250000X0.475000X-0.250000X0.475000X0.250000X0*%
%ADD19RoundRect,0.150000X0.587500X0.150000X-0.587500X0.150000X-0.587500X-0.150000X0.587500X-0.150000X0*%
%ADD20RoundRect,0.150000X-0.150000X0.825000X-0.150000X-0.825000X0.150000X-0.825000X0.150000X0.825000X0*%
%ADD21RoundRect,0.200000X-0.200000X-0.275000X0.200000X-0.275000X0.200000X0.275000X-0.200000X0.275000X0*%
%ADD22RoundRect,0.237500X-0.237500X0.287500X-0.237500X-0.287500X0.237500X-0.287500X0.237500X0.287500X0*%
%ADD23RoundRect,0.250000X-0.350000X-0.450000X0.350000X-0.450000X0.350000X0.450000X-0.350000X0.450000X0*%
%ADD24R,2.750000X3.050000*%
%ADD25R,1.200000X2.200000*%
%ADD26RoundRect,0.100000X-0.712500X-0.100000X0.712500X-0.100000X0.712500X0.100000X-0.712500X0.100000X0*%
%ADD27RoundRect,0.250000X0.450000X-0.350000X0.450000X0.350000X-0.450000X0.350000X-0.450000X-0.350000X0*%
%ADD28RoundRect,0.237500X0.044194X0.380070X-0.380070X-0.044194X-0.044194X-0.380070X0.380070X0.044194X0*%
%ADD29RoundRect,0.237500X-0.272291X0.268820X-0.199169X-0.326708X0.272291X-0.268820X0.199169X0.326708X0*%
%ADD30RoundRect,0.250001X-0.624999X0.462499X-0.624999X-0.462499X0.624999X-0.462499X0.624999X0.462499X0*%
%ADD31RoundRect,0.087500X0.187500X0.087500X-0.187500X0.087500X-0.187500X-0.087500X0.187500X-0.087500X0*%
%ADD32RoundRect,0.087500X-0.187500X-0.087500X0.187500X-0.087500X0.187500X0.087500X-0.187500X0.087500X0*%
%ADD33RoundRect,0.125000X-0.125000X-0.575000X0.125000X-0.575000X0.125000X0.575000X-0.125000X0.575000X0*%
%ADD34RoundRect,0.225000X0.225000X0.250000X-0.225000X0.250000X-0.225000X-0.250000X0.225000X-0.250000X0*%
%ADD35RoundRect,0.250000X-0.250000X-0.475000X0.250000X-0.475000X0.250000X0.475000X-0.250000X0.475000X0*%
%ADD36RoundRect,0.237500X0.266197X-0.219193X0.205262X0.277081X-0.266197X0.219193X-0.205262X-0.277081X0*%
%ADD37RoundRect,0.250000X-0.450000X0.350000X-0.450000X-0.350000X0.450000X-0.350000X0.450000X0.350000X0*%
%ADD38RoundRect,0.200000X-0.275000X0.200000X-0.275000X-0.200000X0.275000X-0.200000X0.275000X0.200000X0*%
%ADD39RoundRect,0.250000X-0.262500X-0.450000X0.262500X-0.450000X0.262500X0.450000X-0.262500X0.450000X0*%
%ADD40RoundRect,0.237500X-0.237500X0.300000X-0.237500X-0.300000X0.237500X-0.300000X0.237500X0.300000X0*%
%ADD41RoundRect,0.225000X-0.250000X0.225000X-0.250000X-0.225000X0.250000X-0.225000X0.250000X0.225000X0*%
%ADD42RoundRect,0.200000X0.275000X-0.200000X0.275000X0.200000X-0.275000X0.200000X-0.275000X-0.200000X0*%
%ADD43RoundRect,0.250001X0.462499X0.624999X-0.462499X0.624999X-0.462499X-0.624999X0.462499X-0.624999X0*%
%ADD44RoundRect,0.350000X0.565685X-0.070711X-0.070711X0.565685X-0.565685X0.070711X0.070711X-0.565685X0*%
%ADD45RoundRect,0.237500X0.250000X0.237500X-0.250000X0.237500X-0.250000X-0.237500X0.250000X-0.237500X0*%
%ADD46RoundRect,0.237500X0.237500X-0.300000X0.237500X0.300000X-0.237500X0.300000X-0.237500X-0.300000X0*%
%ADD47RoundRect,0.237500X0.237500X-0.250000X0.237500X0.250000X-0.237500X0.250000X-0.237500X-0.250000X0*%
%ADD48RoundRect,0.225000X0.250000X-0.225000X0.250000X0.225000X-0.250000X0.225000X-0.250000X-0.225000X0*%
%ADD49R,1.300000X1.550000*%
%ADD50RoundRect,0.150000X-0.512500X-0.150000X0.512500X-0.150000X0.512500X0.150000X-0.512500X0.150000X0*%
%ADD51RoundRect,0.237500X-0.044194X-0.380070X0.380070X0.044194X0.044194X0.380070X-0.380070X-0.044194X0*%
%ADD52R,1.300000X1.600000*%
%ADD53R,2.000000X1.600000*%
%ADD54RoundRect,0.237500X-0.380070X0.044194X0.044194X-0.380070X0.380070X-0.044194X-0.044194X0.380070X0*%
%ADD55R,2.000000X1.500000*%
%ADD56R,2.000000X3.800000*%
%ADD57RotRect,0.850000X1.100000X187.000000*%
%ADD58RotRect,0.750000X1.100000X187.000000*%
%ADD59RotRect,1.200000X1.000000X187.000000*%
%ADD60RotRect,1.170000X1.800000X187.000000*%
%ADD61RotRect,1.900000X1.350000X187.000000*%
%ADD62RotRect,1.550000X1.350000X187.000000*%
%ADD63R,0.500000X0.350000*%
%ADD64RoundRect,0.225000X-0.335876X-0.017678X-0.017678X-0.335876X0.335876X0.017678X0.017678X0.335876X0*%
%ADD65R,1.350000X3.400000*%
%ADD66RoundRect,0.150000X-0.388909X-0.176777X-0.176777X-0.388909X0.388909X0.176777X0.176777X0.388909X0*%
%ADD67RoundRect,0.225000X-0.225000X-0.250000X0.225000X-0.250000X0.225000X0.250000X-0.225000X0.250000X0*%
%ADD68RoundRect,0.225000X-0.017678X0.335876X-0.335876X0.017678X0.017678X-0.335876X0.335876X-0.017678X0*%
%ADD69RoundRect,0.150000X-0.150000X0.512500X-0.150000X-0.512500X0.150000X-0.512500X0.150000X0.512500X0*%
%ADD70RoundRect,0.225000X0.741803X0.317772X-0.796644X0.128874X-0.741803X-0.317772X0.796644X-0.128874X0*%
%ADD71RoundRect,0.225000X0.335876X0.017678X0.017678X0.335876X-0.335876X-0.017678X-0.017678X-0.335876X0*%
%ADD72R,6.350000X7.340000*%
%ADD73RoundRect,0.150000X-0.490400X-0.211340X0.526960X-0.086424X0.490400X0.211340X-0.526960X0.086424X0*%
%ADD74RoundRect,0.150000X-0.587500X-0.150000X0.587500X-0.150000X0.587500X0.150000X-0.587500X0.150000X0*%
%ADD75RoundRect,0.237500X-0.266197X0.219193X-0.205262X-0.277081X0.266197X-0.219193X0.205262X0.277081X0*%
%ADD76R,0.375000X0.350000*%
%ADD77R,0.350000X0.375000*%
%ADD78RoundRect,0.250001X-0.462499X-0.624999X0.462499X-0.624999X0.462499X0.624999X-0.462499X0.624999X0*%
%ADD79RoundRect,0.150000X0.150000X-0.587500X0.150000X0.587500X-0.150000X0.587500X-0.150000X-0.587500X0*%
%ADD80RoundRect,0.250000X-0.501927X0.190249X-0.440992X-0.306024X0.501927X-0.190249X0.440992X0.306024X0*%
%ADD81RoundRect,0.150000X0.512500X0.150000X-0.512500X0.150000X-0.512500X-0.150000X0.512500X-0.150000X0*%
%ADD82RoundRect,0.075000X0.075000X-0.512500X0.075000X0.512500X-0.075000X0.512500X-0.075000X-0.512500X0*%
%ADD83R,3.050000X2.750000*%
%ADD84R,2.200000X1.200000*%
%ADD85RoundRect,0.075000X0.459619X0.565685X-0.565685X-0.459619X-0.459619X-0.565685X0.565685X0.459619X0*%
%ADD86RoundRect,0.075000X-0.459619X0.565685X-0.565685X0.459619X0.459619X-0.565685X0.565685X-0.459619X0*%
%ADD87RotRect,1.550000X1.300000X97.000000*%
%ADD88RoundRect,0.150000X-0.825000X-0.150000X0.825000X-0.150000X0.825000X0.150000X-0.825000X0.150000X0*%
%ADD89R,1.500000X0.900000*%
G04 APERTURE END LIST*
D10*
%TO.C,R90*%
X252987500Y-36900000D03*
X254812500Y-36900000D03*
%TD*%
D11*
%TO.C,C57*%
X143251992Y-71048008D03*
X144348008Y-69951992D03*
%TD*%
D12*
%TO.C,R20*%
X107910000Y-57145000D03*
X107910000Y-58970000D03*
%TD*%
D13*
%TO.C,D5*%
X107500000Y-112000000D03*
X111500000Y-112000000D03*
%TD*%
D14*
%TO.C,C34*%
X227000000Y-82150000D03*
X227000000Y-80250000D03*
%TD*%
D10*
%TO.C,R96*%
X202587500Y-84400000D03*
X204412500Y-84400000D03*
%TD*%
D12*
%TO.C,R120*%
X143760000Y-38695000D03*
X143760000Y-40520000D03*
%TD*%
D15*
%TO.C,D9*%
X131600000Y-117200000D03*
X136000000Y-117200000D03*
%TD*%
D16*
%TO.C,C64*%
X174000000Y-47700000D03*
X172100000Y-47700000D03*
%TD*%
D17*
%TO.C,R1*%
X179125000Y-90100000D03*
X177475000Y-90100000D03*
%TD*%
D18*
%TO.C,C32*%
X216500000Y-80300000D03*
X216500000Y-82200000D03*
%TD*%
D19*
%TO.C,Q11*%
X189637500Y-86500000D03*
X189637500Y-84600000D03*
X187762500Y-85550000D03*
%TD*%
D15*
%TO.C,D8*%
X137050000Y-111050000D03*
X132650000Y-111050000D03*
%TD*%
D10*
%TO.C,R80*%
X261687500Y-88900000D03*
X263512500Y-88900000D03*
%TD*%
D20*
%TO.C,U19*%
X246905000Y-64525000D03*
X245635000Y-64525000D03*
X244365000Y-64525000D03*
X243095000Y-64525000D03*
X243095000Y-69475000D03*
X244365000Y-69475000D03*
X245635000Y-69475000D03*
X246905000Y-69475000D03*
%TD*%
D21*
%TO.C,R107*%
X159975000Y-59100000D03*
X161625000Y-59100000D03*
%TD*%
D19*
%TO.C,Q10*%
X185837500Y-94650000D03*
X185837500Y-92750000D03*
X183962500Y-93700000D03*
%TD*%
D22*
%TO.C,D6*%
X153800000Y-101675000D03*
X153800000Y-103425000D03*
%TD*%
D20*
%TO.C,U16*%
X246905000Y-80025000D03*
X245635000Y-80025000D03*
X244365000Y-80025000D03*
X243095000Y-80025000D03*
X243095000Y-84975000D03*
X244365000Y-84975000D03*
X245635000Y-84975000D03*
X246905000Y-84975000D03*
%TD*%
D23*
%TO.C,R85*%
X256000000Y-53600000D03*
X258000000Y-53600000D03*
%TD*%
D24*
%TO.C,Q3*%
X121775000Y-126525000D03*
X124825000Y-126525000D03*
X124825000Y-129875000D03*
X121775000Y-129875000D03*
D25*
X125580000Y-121900000D03*
X121020000Y-121900000D03*
%TD*%
D10*
%TO.C,R82*%
X261687500Y-68700000D03*
X263512500Y-68700000D03*
%TD*%
D24*
%TO.C,Q1*%
X91225000Y-128425000D03*
X88175000Y-128425000D03*
X88175000Y-131775000D03*
X91225000Y-131775000D03*
D25*
X87420000Y-136400000D03*
X91980000Y-136400000D03*
%TD*%
D12*
%TO.C,R2*%
X84300000Y-134887500D03*
X84300000Y-136712500D03*
%TD*%
D26*
%TO.C,U13*%
X145687500Y-102175000D03*
X145687500Y-102825000D03*
X145687500Y-103475000D03*
X145687500Y-104125000D03*
X149912500Y-104125000D03*
X149912500Y-103475000D03*
X149912500Y-102825000D03*
X149912500Y-102175000D03*
%TD*%
D20*
%TO.C,U17*%
X246905000Y-95525000D03*
X245635000Y-95525000D03*
X244365000Y-95525000D03*
X243095000Y-95525000D03*
X243095000Y-100475000D03*
X244365000Y-100475000D03*
X245635000Y-100475000D03*
X246905000Y-100475000D03*
%TD*%
D12*
%TO.C,R19*%
X147600000Y-122675000D03*
X147600000Y-124500000D03*
%TD*%
D27*
%TO.C,R89*%
X249800000Y-40900000D03*
X249800000Y-38900000D03*
%TD*%
D28*
%TO.C,C17*%
X148509880Y-65490120D03*
X147290120Y-66709880D03*
%TD*%
D18*
%TO.C,C61*%
X137500000Y-96450000D03*
X137500000Y-98350000D03*
%TD*%
D29*
%TO.C,C12*%
X171094888Y-114743929D03*
X171305112Y-116456071D03*
%TD*%
D30*
%TO.C,F3*%
X107500000Y-115112500D03*
X107500000Y-118087500D03*
%TD*%
D10*
%TO.C,R95*%
X202637500Y-81400000D03*
X204462500Y-81400000D03*
%TD*%
D31*
%TO.C,U24*%
X139725000Y-47950000D03*
X139725000Y-46950000D03*
D32*
X137675000Y-46950000D03*
X137675000Y-47950000D03*
D33*
X138700000Y-47450000D03*
%TD*%
D34*
%TO.C,C36*%
X139475000Y-45100000D03*
X137925000Y-45100000D03*
%TD*%
D17*
%TO.C,R104*%
X200225000Y-76250000D03*
X198575000Y-76250000D03*
%TD*%
D35*
%TO.C,C10*%
X146750000Y-106150000D03*
X148650000Y-106150000D03*
%TD*%
D36*
%TO.C,R25*%
X166606971Y-113289177D03*
X166384559Y-111477781D03*
%TD*%
D37*
%TO.C,R91*%
X241400000Y-133100000D03*
X241400000Y-135100000D03*
%TD*%
D38*
%TO.C,R98*%
X158250000Y-78875000D03*
X158250000Y-80525000D03*
%TD*%
D12*
%TO.C,R4*%
X82500000Y-136787500D03*
X82500000Y-138612500D03*
%TD*%
D39*
%TO.C,R69*%
X192487500Y-68300000D03*
X194312500Y-68300000D03*
%TD*%
D40*
%TO.C,C63*%
X193800000Y-109500000D03*
X193800000Y-111225000D03*
%TD*%
D27*
%TO.C,R77*%
X258400000Y-83600000D03*
X258400000Y-81600000D03*
%TD*%
D41*
%TO.C,C38*%
X170500000Y-67575000D03*
X170500000Y-69125000D03*
%TD*%
D42*
%TO.C,R106*%
X224900000Y-79225000D03*
X224900000Y-77575000D03*
%TD*%
D43*
%TO.C,F4*%
X161437500Y-46400000D03*
X158462500Y-46400000D03*
%TD*%
D11*
%TO.C,C59*%
X148151992Y-75848008D03*
X149248008Y-74751992D03*
%TD*%
D10*
%TO.C,R70*%
X180537500Y-69060000D03*
X182362500Y-69060000D03*
%TD*%
D17*
%TO.C,R101*%
X161825000Y-84450000D03*
X160175000Y-84450000D03*
%TD*%
D10*
%TO.C,R99*%
X209487500Y-82200000D03*
X211312500Y-82200000D03*
%TD*%
D44*
%TO.C,Y1*%
X148743325Y-68669670D03*
X151430331Y-71356676D03*
X153056676Y-69730330D03*
X150369671Y-67043324D03*
%TD*%
D13*
%TO.C,D11*%
X142200000Y-123400000D03*
X138200000Y-123400000D03*
%TD*%
D45*
%TO.C,R62*%
X193462500Y-82800000D03*
X191637500Y-82800000D03*
%TD*%
D46*
%TO.C,C39*%
X126450000Y-48112500D03*
X126450000Y-46387500D03*
%TD*%
D47*
%TO.C,R15*%
X151700000Y-107462500D03*
X151700000Y-105637500D03*
%TD*%
D34*
%TO.C,C9*%
X148625000Y-100750000D03*
X147075000Y-100750000D03*
%TD*%
D47*
%TO.C,R76*%
X238800000Y-90312500D03*
X238800000Y-88487500D03*
%TD*%
D48*
%TO.C,C29*%
X248600000Y-50475000D03*
X248600000Y-48925000D03*
%TD*%
D49*
%TO.C,SW3*%
X28500000Y-103025000D03*
X28500000Y-110975000D03*
X24000000Y-110975000D03*
X24000000Y-103025000D03*
%TD*%
D10*
%TO.C,R66*%
X180537500Y-67270000D03*
X182362500Y-67270000D03*
%TD*%
D27*
%TO.C,R81*%
X258400000Y-73400000D03*
X258400000Y-71400000D03*
%TD*%
D39*
%TO.C,R67*%
X192487500Y-64300000D03*
X194312500Y-64300000D03*
%TD*%
D50*
%TO.C,U21*%
X209212500Y-86650000D03*
X209212500Y-87600000D03*
X209212500Y-88550000D03*
X211487500Y-88550000D03*
X211487500Y-86650000D03*
%TD*%
D21*
%TO.C,R119*%
X110625000Y-69550000D03*
X112275000Y-69550000D03*
%TD*%
D51*
%TO.C,C23*%
X156290120Y-72309880D03*
X157509880Y-71090120D03*
%TD*%
D52*
%TO.C,RV1*%
X225150000Y-49650000D03*
D53*
X223900000Y-52550000D03*
D52*
X222650000Y-49650000D03*
%TD*%
D15*
%TO.C,D10*%
X139750000Y-111050000D03*
X144150000Y-111050000D03*
%TD*%
D51*
%TO.C,C1*%
X144290120Y-72209880D03*
X145509880Y-70990120D03*
%TD*%
D48*
%TO.C,C28*%
X248600000Y-69475000D03*
X248600000Y-67925000D03*
%TD*%
D51*
%TO.C,C22*%
X157490120Y-73409880D03*
X158709880Y-72190120D03*
%TD*%
D45*
%TO.C,R59*%
X193462500Y-81150000D03*
X191637500Y-81150000D03*
%TD*%
D19*
%TO.C,Q12*%
X189637500Y-82900000D03*
X189637500Y-81000000D03*
X187762500Y-81950000D03*
%TD*%
D12*
%TO.C,R17*%
X146100000Y-122675000D03*
X146100000Y-124500000D03*
%TD*%
D54*
%TO.C,C18*%
X123890120Y-75690120D03*
X125109880Y-76909880D03*
%TD*%
D48*
%TO.C,C27*%
X248600000Y-119475000D03*
X248600000Y-117925000D03*
%TD*%
D10*
%TO.C,R86*%
X259287500Y-52000000D03*
X261112500Y-52000000D03*
%TD*%
%TO.C,R78*%
X261687500Y-78600000D03*
X263512500Y-78600000D03*
%TD*%
D55*
%TO.C,U12*%
X111950000Y-102200000D03*
X111950000Y-99900000D03*
X111950000Y-97600000D03*
D56*
X105650000Y-99900000D03*
%TD*%
D48*
%TO.C,C35*%
X165350000Y-74875000D03*
X165350000Y-73325000D03*
%TD*%
D57*
%TO.C,J7*%
X160196044Y-129030972D03*
X159104243Y-129165028D03*
X158012442Y-129299085D03*
X156920641Y-129433141D03*
X155828841Y-129567197D03*
X154737040Y-129701254D03*
X153645239Y-129835310D03*
D58*
X152603066Y-129963273D03*
D59*
X162061906Y-122605688D03*
X161610990Y-118933267D03*
D60*
X151359431Y-129763343D03*
D61*
X152092755Y-119119637D03*
X158018256Y-118392077D03*
D62*
X162622474Y-128607105D03*
%TD*%
D48*
%TO.C,C6*%
X114500000Y-102475000D03*
X114500000Y-100925000D03*
%TD*%
D63*
%TO.C,U25*%
X174250000Y-69275000D03*
X174250000Y-69925000D03*
X174250000Y-70575000D03*
X174250000Y-71225000D03*
X172650000Y-71225000D03*
X172650000Y-70575000D03*
X172650000Y-69925000D03*
X172650000Y-69275000D03*
%TD*%
D64*
%TO.C,C21*%
X149851992Y-85151992D03*
X150948008Y-86248008D03*
%TD*%
D27*
%TO.C,R93*%
X241500000Y-32100000D03*
X241500000Y-30100000D03*
%TD*%
D55*
%TO.C,Q6*%
X135100000Y-101700000D03*
X135100000Y-104000000D03*
D56*
X141400000Y-104000000D03*
D55*
X135100000Y-106300000D03*
%TD*%
D10*
%TO.C,R71*%
X180537500Y-70850000D03*
X182362500Y-70850000D03*
%TD*%
D38*
%TO.C,R100*%
X155600000Y-78825000D03*
X155600000Y-80475000D03*
%TD*%
D17*
%TO.C,R102*%
X161825000Y-86050000D03*
X160175000Y-86050000D03*
%TD*%
D65*
%TO.C,L1*%
X216425000Y-85600000D03*
X218575000Y-85600000D03*
%TD*%
D45*
%TO.C,R58*%
X193462500Y-84650000D03*
X191637500Y-84650000D03*
%TD*%
D24*
%TO.C,Q2*%
X79125000Y-131175000D03*
X79125000Y-127825000D03*
X76075000Y-131175000D03*
X76075000Y-127825000D03*
D25*
X75320000Y-135800000D03*
X79880000Y-135800000D03*
%TD*%
D66*
%TO.C,Y2*%
X155394975Y-75294975D03*
X154405026Y-74305026D03*
%TD*%
D51*
%TO.C,C19*%
X131290120Y-94209880D03*
X132509880Y-92990120D03*
%TD*%
D48*
%TO.C,C37*%
X170500000Y-72125000D03*
X170500000Y-70575000D03*
%TD*%
D67*
%TO.C,C2*%
X116175000Y-42150000D03*
X117725000Y-42150000D03*
%TD*%
D43*
%TO.C,F5*%
X161437500Y-48750000D03*
X158462500Y-48750000D03*
%TD*%
D12*
%TO.C,R5*%
X69700000Y-137287500D03*
X69700000Y-139112500D03*
%TD*%
D14*
%TO.C,C5*%
X117200000Y-102800000D03*
X117200000Y-100900000D03*
%TD*%
D10*
%TO.C,R63*%
X180537500Y-61900000D03*
X182362500Y-61900000D03*
%TD*%
D41*
%TO.C,C11*%
X106360000Y-60682500D03*
X106360000Y-62232500D03*
%TD*%
D27*
%TO.C,R87*%
X249800000Y-125500000D03*
X249800000Y-123500000D03*
%TD*%
D10*
%TO.C,R84*%
X258287500Y-103800000D03*
X260112500Y-103800000D03*
%TD*%
D68*
%TO.C,C53*%
X133848008Y-94151992D03*
X132751992Y-95248008D03*
%TD*%
D39*
%TO.C,R68*%
X192487500Y-66300000D03*
X194312500Y-66300000D03*
%TD*%
D21*
%TO.C,R118*%
X110675000Y-72450000D03*
X112325000Y-72450000D03*
%TD*%
D47*
%TO.C,R94*%
X247800000Y-26712500D03*
X247800000Y-24887500D03*
%TD*%
D41*
%TO.C,C33*%
X123400000Y-39225000D03*
X123400000Y-40775000D03*
%TD*%
D69*
%TO.C,U14*%
X111700000Y-59162500D03*
X110750000Y-59162500D03*
X109800000Y-59162500D03*
X109800000Y-61437500D03*
X111700000Y-61437500D03*
%TD*%
D41*
%TO.C,C14*%
X122650000Y-103525000D03*
X122650000Y-105075000D03*
%TD*%
D23*
%TO.C,R13*%
X135100000Y-108450000D03*
X137100000Y-108450000D03*
%TD*%
D70*
%TO.C,U31*%
X191791846Y-116834557D03*
X191637072Y-115574024D03*
X191482298Y-114313490D03*
X191327524Y-113052956D03*
X191172750Y-111792423D03*
X191017976Y-110531889D03*
X190863202Y-109271356D03*
X190708428Y-108010822D03*
X190553654Y-106750288D03*
X190398879Y-105489755D03*
X190244105Y-104229221D03*
X190089331Y-102968688D03*
X189934557Y-101708154D03*
X189779783Y-100447620D03*
X189625009Y-99187087D03*
X189470235Y-97926553D03*
X174343832Y-99783842D03*
X174498606Y-101044375D03*
X174653380Y-102304909D03*
X174808154Y-103565443D03*
X174962928Y-104825976D03*
X175117702Y-106086510D03*
X175272476Y-107347044D03*
X175427250Y-108607577D03*
X175582024Y-109868111D03*
X175736798Y-111128644D03*
X175891572Y-112389178D03*
X176046346Y-113649712D03*
X176201121Y-114910245D03*
X176355895Y-116170779D03*
X176510669Y-117431312D03*
X176665443Y-118691846D03*
%TD*%
D71*
%TO.C,C54*%
X123948008Y-77848008D03*
X122851992Y-76751992D03*
%TD*%
D72*
%TO.C,BT2*%
X72000000Y-121830000D03*
X72000000Y-43170000D03*
%TD*%
D41*
%TO.C,C7*%
X114500000Y-97625000D03*
X114500000Y-99175000D03*
%TD*%
D49*
%TO.C,SW4*%
X28500000Y-61725000D03*
X28500000Y-53775000D03*
X24000000Y-53775000D03*
X24000000Y-61725000D03*
%TD*%
D48*
%TO.C,C26*%
X248600000Y-100450000D03*
X248600000Y-98900000D03*
%TD*%
D73*
%TO.C,D12*%
X166754470Y-116746976D03*
X166870246Y-117689894D03*
X166986022Y-118632813D03*
X169244064Y-118355560D03*
X169128288Y-117412642D03*
X169012512Y-116469723D03*
%TD*%
D22*
%TO.C,D24*%
X143750000Y-35050000D03*
X143750000Y-36800000D03*
%TD*%
D71*
%TO.C,C55*%
X132848008Y-69848008D03*
X131751992Y-68751992D03*
%TD*%
D74*
%TO.C,Q15*%
X185612500Y-69150000D03*
X185612500Y-71050000D03*
X187487500Y-70100000D03*
%TD*%
%TO.C,Q14*%
X185612500Y-65400000D03*
X185612500Y-67300000D03*
X187487500Y-66350000D03*
%TD*%
D75*
%TO.C,R23*%
X172688794Y-115894302D03*
X172911206Y-117705698D03*
%TD*%
D15*
%TO.C,D23*%
X225700000Y-85800000D03*
X221300000Y-85800000D03*
%TD*%
D76*
%TO.C,U26*%
X123037500Y-46500000D03*
X123037500Y-47000000D03*
X123037500Y-47500000D03*
X123037500Y-48000000D03*
D77*
X123550000Y-48012500D03*
X124050000Y-48012500D03*
D76*
X124562500Y-48000000D03*
X124562500Y-47500000D03*
X124562500Y-47000000D03*
X124562500Y-46500000D03*
D77*
X124050000Y-46487500D03*
X123550000Y-46487500D03*
%TD*%
D51*
%TO.C,C16*%
X153490120Y-72809880D03*
X154709880Y-71590120D03*
%TD*%
D21*
%TO.C,R108*%
X159975000Y-60650000D03*
X161625000Y-60650000D03*
%TD*%
D38*
%TO.C,R97*%
X160950000Y-78875000D03*
X160950000Y-80525000D03*
%TD*%
D78*
%TO.C,F2*%
X68812500Y-127600000D03*
X71787500Y-127600000D03*
%TD*%
D47*
%TO.C,R73*%
X105150000Y-76112500D03*
X105150000Y-74287500D03*
%TD*%
D67*
%TO.C,C13*%
X109885000Y-57270000D03*
X111435000Y-57270000D03*
%TD*%
D12*
%TO.C,R92*%
X247600000Y-136087500D03*
X247600000Y-137912500D03*
%TD*%
D18*
%TO.C,C8*%
X117200000Y-97300000D03*
X117200000Y-99200000D03*
%TD*%
D11*
%TO.C,C56*%
X140951992Y-68848008D03*
X142048008Y-67751992D03*
%TD*%
D26*
%TO.C,U10*%
X174437500Y-93275000D03*
X174437500Y-93925000D03*
X174437500Y-94575000D03*
X174437500Y-95225000D03*
X178662500Y-95225000D03*
X178662500Y-94575000D03*
X178662500Y-93925000D03*
X178662500Y-93275000D03*
%TD*%
D10*
%TO.C,R65*%
X180537500Y-65480000D03*
X182362500Y-65480000D03*
%TD*%
D79*
%TO.C,Q5*%
X153950000Y-111337500D03*
X155850000Y-111337500D03*
X154900000Y-109462500D03*
%TD*%
D48*
%TO.C,C24*%
X219800000Y-52475000D03*
X219800000Y-50925000D03*
%TD*%
D12*
%TO.C,R3*%
X71600000Y-135387500D03*
X71600000Y-137212500D03*
%TD*%
D80*
%TO.C,C62*%
X160484224Y-113957081D03*
X160715776Y-115842919D03*
%TD*%
D48*
%TO.C,C15*%
X108350000Y-76025000D03*
X108350000Y-74475000D03*
%TD*%
D27*
%TO.C,R79*%
X258400000Y-93600000D03*
X258400000Y-91600000D03*
%TD*%
D42*
%TO.C,R105*%
X224900000Y-82525000D03*
X224900000Y-80875000D03*
%TD*%
D12*
%TO.C,R75*%
X106850000Y-74287500D03*
X106850000Y-76112500D03*
%TD*%
D10*
%TO.C,R88*%
X253587500Y-120800000D03*
X255412500Y-120800000D03*
%TD*%
D81*
%TO.C,U22*%
X221437500Y-81350000D03*
X221437500Y-80400000D03*
X221437500Y-79450000D03*
X219162500Y-79450000D03*
X219162500Y-80400000D03*
X219162500Y-81350000D03*
%TD*%
D27*
%TO.C,R83*%
X255300000Y-108500000D03*
X255300000Y-106500000D03*
%TD*%
D30*
%TO.C,F1*%
X95150000Y-127562500D03*
X95150000Y-130537500D03*
%TD*%
D82*
%TO.C,U23*%
X162350000Y-74887500D03*
X163000000Y-74887500D03*
X163650000Y-74887500D03*
X163650000Y-73312500D03*
X163000000Y-73312500D03*
X162350000Y-73312500D03*
%TD*%
D20*
%TO.C,U20*%
X246905000Y-45525000D03*
X245635000Y-45525000D03*
X244365000Y-45525000D03*
X243095000Y-45525000D03*
X243095000Y-50475000D03*
X244365000Y-50475000D03*
X245635000Y-50475000D03*
X246905000Y-50475000D03*
%TD*%
D10*
%TO.C,R64*%
X180537500Y-63690000D03*
X182362500Y-63690000D03*
%TD*%
D36*
%TO.C,R24*%
X168097314Y-113118780D03*
X167874902Y-111307384D03*
%TD*%
D45*
%TO.C,R8*%
X138812500Y-130400000D03*
X136987500Y-130400000D03*
%TD*%
D34*
%TO.C,C30*%
X211275000Y-85350000D03*
X209725000Y-85350000D03*
%TD*%
D12*
%TO.C,R21*%
X107910000Y-60545000D03*
X107910000Y-62370000D03*
%TD*%
D83*
%TO.C,Q9*%
X139325000Y-116275000D03*
X139325000Y-119325000D03*
X142675000Y-116275000D03*
X142675000Y-119325000D03*
D84*
X147300000Y-120080000D03*
X147300000Y-115520000D03*
%TD*%
D74*
%TO.C,Q16*%
X203012500Y-87500000D03*
X203012500Y-89400000D03*
X204887500Y-88450000D03*
%TD*%
D48*
%TO.C,C25*%
X248600000Y-84975000D03*
X248600000Y-83425000D03*
%TD*%
D85*
%TO.C,MCU1*%
X147169685Y-80315596D03*
X146816132Y-79962043D03*
X146462578Y-79608489D03*
X146109025Y-79254936D03*
X145755472Y-78901383D03*
X145401918Y-78547829D03*
X145048365Y-78194276D03*
X144694811Y-77840722D03*
X144341258Y-77487169D03*
X143987705Y-77133616D03*
X143634151Y-76780062D03*
X143280598Y-76426509D03*
X142927045Y-76072955D03*
X142573491Y-75719402D03*
X142219938Y-75365849D03*
X141866384Y-75012295D03*
X141512831Y-74658742D03*
X141159278Y-74305189D03*
X140805724Y-73951635D03*
X140452171Y-73598082D03*
X140098617Y-73244528D03*
X139745064Y-72890975D03*
X139391511Y-72537422D03*
X139037957Y-72183868D03*
X138684404Y-71830315D03*
D86*
X136315596Y-71830315D03*
X135962043Y-72183868D03*
X135608489Y-72537422D03*
X135254936Y-72890975D03*
X134901383Y-73244528D03*
X134547829Y-73598082D03*
X134194276Y-73951635D03*
X133840722Y-74305189D03*
X133487169Y-74658742D03*
X133133616Y-75012295D03*
X132780062Y-75365849D03*
X132426509Y-75719402D03*
X132072955Y-76072955D03*
X131719402Y-76426509D03*
X131365849Y-76780062D03*
X131012295Y-77133616D03*
X130658742Y-77487169D03*
X130305189Y-77840722D03*
X129951635Y-78194276D03*
X129598082Y-78547829D03*
X129244528Y-78901383D03*
X128890975Y-79254936D03*
X128537422Y-79608489D03*
X128183868Y-79962043D03*
X127830315Y-80315596D03*
D85*
X127830315Y-82684404D03*
X128183868Y-83037957D03*
X128537422Y-83391511D03*
X128890975Y-83745064D03*
X129244528Y-84098617D03*
X129598082Y-84452171D03*
X129951635Y-84805724D03*
X130305189Y-85159278D03*
X130658742Y-85512831D03*
X131012295Y-85866384D03*
X131365849Y-86219938D03*
X131719402Y-86573491D03*
X132072955Y-86927045D03*
X132426509Y-87280598D03*
X132780062Y-87634151D03*
X133133616Y-87987705D03*
X133487169Y-88341258D03*
X133840722Y-88694811D03*
X134194276Y-89048365D03*
X134547829Y-89401918D03*
X134901383Y-89755472D03*
X135254936Y-90109025D03*
X135608489Y-90462578D03*
X135962043Y-90816132D03*
X136315596Y-91169685D03*
D86*
X138684404Y-91169685D03*
X139037957Y-90816132D03*
X139391511Y-90462578D03*
X139745064Y-90109025D03*
X140098617Y-89755472D03*
X140452171Y-89401918D03*
X140805724Y-89048365D03*
X141159278Y-88694811D03*
X141512831Y-88341258D03*
X141866384Y-87987705D03*
X142219938Y-87634151D03*
X142573491Y-87280598D03*
X142927045Y-86927045D03*
X143280598Y-86573491D03*
X143634151Y-86219938D03*
X143987705Y-85866384D03*
X144341258Y-85512831D03*
X144694811Y-85159278D03*
X145048365Y-84805724D03*
X145401918Y-84452171D03*
X145755472Y-84098617D03*
X146109025Y-83745064D03*
X146462578Y-83391511D03*
X146816132Y-83037957D03*
X147169685Y-82684404D03*
%TD*%
D45*
%TO.C,R103*%
X204612500Y-76250000D03*
X202787500Y-76250000D03*
%TD*%
%TO.C,R61*%
X193412500Y-86350000D03*
X191587500Y-86350000D03*
%TD*%
D36*
%TO.C,R26*%
X165119676Y-113484388D03*
X164897264Y-111672992D03*
%TD*%
D72*
%TO.C,BT1*%
X93500000Y-121830000D03*
X93500000Y-43170000D03*
%TD*%
D47*
%TO.C,R72*%
X119500000Y-105162500D03*
X119500000Y-103337500D03*
%TD*%
D34*
%TO.C,C3*%
X179025000Y-91650000D03*
X177475000Y-91650000D03*
%TD*%
D35*
%TO.C,C31*%
X195500000Y-52650000D03*
X197400000Y-52650000D03*
%TD*%
D15*
%TO.C,D7*%
X129200000Y-117200000D03*
X124800000Y-117200000D03*
%TD*%
D12*
%TO.C,R74*%
X121100000Y-103337500D03*
X121100000Y-105162500D03*
%TD*%
D20*
%TO.C,U18*%
X246905000Y-114525000D03*
X245635000Y-114525000D03*
X244365000Y-114525000D03*
X243095000Y-114525000D03*
X243095000Y-119475000D03*
X244365000Y-119475000D03*
X245635000Y-119475000D03*
X246905000Y-119475000D03*
%TD*%
D12*
%TO.C,R11*%
X153800000Y-104937500D03*
X153800000Y-106762500D03*
%TD*%
D22*
%TO.C,D4*%
X137100000Y-126875000D03*
X137100000Y-128625000D03*
%TD*%
D87*
%TO.C,SW1*%
X192882341Y-98128835D03*
X193851202Y-106019577D03*
X198317659Y-105471165D03*
X197348798Y-97580423D03*
%TD*%
D75*
%TO.C,R22*%
X164188794Y-117094302D03*
X164411206Y-118905698D03*
%TD*%
D14*
%TO.C,C60*%
X137600000Y-68450000D03*
X137600000Y-66550000D03*
%TD*%
D24*
%TO.C,Q8*%
X131245000Y-129890000D03*
X134295000Y-126540000D03*
X131245000Y-126540000D03*
X134295000Y-129890000D03*
D25*
X135050000Y-121915000D03*
X130490000Y-121915000D03*
%TD*%
D50*
%TO.C,U15*%
X234262500Y-88450000D03*
X234262500Y-89400000D03*
X234262500Y-90350000D03*
X236537500Y-90350000D03*
X236537500Y-88450000D03*
%TD*%
D74*
%TO.C,Q13*%
X185612500Y-61800000D03*
X185612500Y-63700000D03*
X187487500Y-62750000D03*
%TD*%
D45*
%TO.C,R60*%
X189762500Y-94550000D03*
X187937500Y-94550000D03*
%TD*%
D11*
%TO.C,C58*%
X146351992Y-74048008D03*
X147448008Y-72951992D03*
%TD*%
%TO.C,C20*%
X142001992Y-69848008D03*
X143098008Y-68751992D03*
%TD*%
D88*
%TO.C,U11*%
X112775000Y-43995000D03*
X112775000Y-45265000D03*
X112775000Y-46535000D03*
X112775000Y-47805000D03*
X117725000Y-47805000D03*
X117725000Y-46535000D03*
X117725000Y-45265000D03*
X117725000Y-43995000D03*
%TD*%
D89*
%TO.C,D22*%
X197450000Y-64000000D03*
X200550000Y-64000000D03*
X200550000Y-65400000D03*
X197450000Y-65400000D03*
%TD*%
D45*
%TO.C,R57*%
X189762500Y-92800000D03*
X187937500Y-92800000D03*
%TD*%
M02*
